<svg width="120" height="122" viewBox="0 0 120 122" fill="none" xmlns="http://www.w3.org/2000/svg">
<path d="M8.53848 32.2887L60 2.57735L111.462 32.2887V91.7113L60 121.423L8.53848 91.7113V32.2887Z" stroke="#B6985A"/>
<circle cx="32" cy="18" r="18" fill="white"/>
<path d="M91.0001 62.3643L88.4999 59.8433V38.536C88.4999 37.964 88.0361 37.5003 87.4642 37.5003H62.0003L59.5001 35L56.9998 37.5003H31.536C30.964 37.5003 30.5003 37.964 30.5003 38.536V59.8433L28 62.3643L30.5003 64.8428V86.1785C30.5003 86.7505 30.964 87.2142 31.536 87.2142H56.9998L59.5001 89.7145L62.0003 87.2142H87.4642C88.0361 87.2142 88.4999 86.7505 88.4999 86.1785V64.8428L91.0001 62.3643ZM80.7164 69.6441L79.2559 68.1735L85.1379 62.3426L79.307 56.4596L80.7776 54.9986L88.071 62.3522L80.7164 69.6441ZM66.8274 45.2564L65.3633 46.718L59.5001 40.8633L53.6368 46.718L52.1722 45.2595L59.5001 37.9291L66.8274 45.2564ZM33.8623 62.3426L39.7437 68.1735L38.2837 69.6441L30.9301 62.3496L38.2236 54.9965L39.6942 56.4575L33.8623 62.3426ZM52.1722 79.4575L53.6368 77.9965L59.5001 83.8512L65.3633 77.9995L66.8274 79.4575L59.5001 86.7854L52.1722 79.4575ZM86.4285 85.1428H64.0718L69.7595 79.4555L65.3623 75.0735L59.5001 80.9241L53.6378 75.0735L49.2401 79.4555L54.9284 85.1428H32.5717V66.8976L38.2939 72.5732L42.6749 68.1613L36.7909 62.3314L42.6223 56.4474L38.2109 52.0684L32.5717 57.7512V39.5717H54.9284L49.2401 45.2585L53.6378 49.6405L59.5001 43.7899L65.3623 49.6405L69.7595 45.2585L64.0718 39.5717H86.4285V57.7512L80.7892 52.0684L76.3819 56.4474L82.2133 62.3314L76.3253 68.1573L80.7063 72.5692L86.4285 66.8976V85.1428Z" fill="#B6985A"/>
</svg>
