<svg width="120" height="122" viewBox="0 0 120 122" fill="none" xmlns="http://www.w3.org/2000/svg">
<path d="M8.53848 32.2887L60 2.57735L111.462 32.2887V91.7113L60 121.423L8.53848 91.7113V32.2887Z" stroke="#B6985A"/>
<circle cx="32" cy="18" r="18" fill="white"/>
<path d="M84.22 56H79.168C78.356 56 77.687 55.553 77.376 54.803C77.065 54.053 77.223 53.263 77.796 52.689L81.368 49.118C81.893 48.593 82.182 47.894 82.182 47.152C82.182 46.409 81.893 45.711 81.368 45.185L76.815 40.632C75.765 39.582 73.934 39.58 72.882 40.632L69.311 44.203C68.737 44.776 67.945 44.936 67.197 44.624C66.447 44.313 66 43.644 66 42.832V37.78C66 36.247 64.753 35 63.22 35H56.78C55.247 35 54 36.247 54 37.78V42.832C54 43.644 53.553 44.313 52.803 44.624C52.055 44.937 51.263 44.776 50.689 44.203L47.118 40.632C46.066 39.58 44.235 39.582 43.185 40.632L38.632 45.185C38.107 45.71 37.818 46.409 37.818 47.152C37.818 47.894 38.107 48.592 38.632 49.118L42.204 52.689C42.777 53.263 42.934 54.053 42.624 54.803C42.314 55.553 41.644 56 40.832 56H35.78C34.247 56 33 57.247 33 58.78V65.219C33 66.753 34.247 68 35.78 68H40.832C41.644 68 42.313 68.447 42.624 69.197C42.935 69.947 42.777 70.737 42.204 71.311L38.632 74.882C38.107 75.407 37.818 76.106 37.818 76.848C37.818 77.591 38.107 78.289 38.632 78.815L43.185 83.368C44.236 84.419 46.066 84.421 47.118 83.368L50.689 79.796C51.263 79.223 52.052 79.065 52.803 79.376C53.553 79.687 54 80.356 54 81.168V86.22C54 87.753 55.247 89 56.78 89H63.219C64.752 89 65.999 87.753 65.999 86.22V81.168C65.999 80.356 66.446 79.687 67.196 79.376C67.947 79.064 68.736 79.223 69.31 79.796L72.881 83.368C73.933 84.42 75.764 84.418 76.814 83.368L81.367 78.815C81.892 78.29 82.181 77.591 82.181 76.848C82.181 76.106 81.892 75.408 81.367 74.882L77.795 71.311C77.222 70.737 77.065 69.947 77.375 69.197C77.685 68.447 78.356 68 79.168 68H84.22C85.753 68 87 66.753 87 65.22V58.78C87 57.247 85.753 56 84.22 56ZM85 65.22C85 65.65 84.65 66 84.22 66H79.168C77.544 66 76.149 66.932 75.528 68.432C74.906 69.932 75.233 71.578 76.382 72.726L79.954 76.297C80.259 76.602 80.259 77.097 79.954 77.401L75.401 81.954C75.097 82.258 74.602 82.26 74.297 81.954L70.726 78.382C69.577 77.233 67.932 76.908 66.432 77.528C64.932 78.149 64 79.544 64 81.168V86.22C64 86.65 63.65 87 63.22 87H56.78C56.35 87 56 86.65 56 86.22V81.168C56 79.544 55.068 78.149 53.568 77.528C53.065 77.319 52.547 77.217 52.035 77.217C51.021 77.217 50.038 77.617 49.274 78.381L45.703 81.953C45.397 82.259 44.902 82.257 44.599 81.953L40.046 77.4C39.741 77.095 39.741 76.6 40.046 76.296L43.618 72.725C44.766 71.577 45.094 69.931 44.472 68.431C43.851 66.932 42.456 66 40.832 66H35.78C35.35 66 35 65.65 35 65.22V58.78C35 58.35 35.35 58 35.78 58H40.832C42.456 58 43.851 57.068 44.472 55.568C45.094 54.068 44.767 52.422 43.618 51.274L40.046 47.703C39.741 47.398 39.741 46.903 40.046 46.599L44.599 42.046C44.903 41.741 45.398 41.741 45.703 42.046L49.274 45.617C50.421 46.764 52.066 47.093 53.568 46.471C55.068 45.851 56 44.456 56 42.832V37.78C56 37.35 56.35 37 56.78 37H63.219C63.65 37 64 37.35 64 37.78V42.832C64 44.456 64.932 45.851 66.432 46.472C67.934 47.094 69.578 46.766 70.726 45.618L74.297 42.047C74.603 41.742 75.098 41.742 75.401 42.047L79.954 46.6C80.259 46.905 80.259 47.4 79.954 47.704L76.382 51.275C75.234 52.423 74.906 54.069 75.528 55.569C76.149 57.069 77.544 58.001 79.168 58.001H84.22C84.65 58 85 58.35 85 58.78V65.22Z" fill="#B6985A"/>
<path d="M60 53C55.037 53 51 57.037 51 62C51 66.963 55.037 71 60 71C64.963 71 69 66.963 69 62C69 57.037 64.963 53 60 53ZM60 69C56.141 69 53 65.859 53 62C53 58.141 56.141 55 60 55C63.859 55 67 58.141 67 62C67 65.859 63.859 69 60 69Z" fill="#B6985A"/>
</svg>
