<svg width="120" height="122" viewBox="0 0 120 122" fill="none" xmlns="http://www.w3.org/2000/svg">
<path d="M8.53848 32.2887L60 2.57735L111.462 32.2887V91.7113L60 121.423L8.53848 91.7113V32.2887Z" stroke="#B6985A"/>
<path d="M68.875 66.7344H72.5625V68.5781H68.875V66.7344Z" fill="#B6985A"/>
<path d="M40.2969 77.7969H42.1406V79.6406H40.2969V77.7969Z" fill="#B6985A"/>
<path d="M74.4062 77.7969H76.25V79.6406H74.4062V77.7969Z" fill="#B6985A"/>
<path d="M86.6764 62.6542L82.1933 54.3573C81.9658 53.9396 81.6339 53.588 81.2299 53.3367C80.826 53.0855 80.3639 52.9432 79.8886 52.9238C79.6591 49.9136 78.3027 47.1008 76.0902 45.0469C73.8777 42.993 70.972 41.8492 67.9531 41.8438H67.0313V40.9219C67.0313 40.6774 66.9341 40.4429 66.7612 40.27C66.5884 40.0971 66.3539 40 66.1094 40H32.9219C32.6774 40 32.4429 40.0971 32.27 40.27C32.0971 40.4429 32 40.6774 32 40.9219V77.7969C32 78.2859 32.1943 78.7548 32.54 79.1006C32.8858 79.4464 33.3548 79.6406 33.8438 79.6406H35.7705C35.9871 80.9289 36.6533 82.0988 37.6508 82.9425C38.6482 83.7862 39.9123 84.2491 41.2188 84.2491C42.5252 84.2491 43.7893 83.7862 44.7867 82.9425C45.7842 82.0988 46.4504 80.9289 46.667 79.6406H69.8798C70.0965 80.9289 70.7627 82.0988 71.7601 82.9425C72.7576 83.7862 74.0217 84.2491 75.3281 84.2491C76.6345 84.2491 77.8987 83.7862 78.8961 82.9425C79.8935 82.0988 80.5597 80.9289 80.7764 79.6406H84.5469C85.2804 79.6406 85.9838 79.3492 86.5025 78.8306C87.0211 78.3119 87.3125 77.6085 87.3125 76.875V64.9902C87.3143 64.1685 87.0945 63.3615 86.6764 62.6542ZM80.5708 55.234L84.793 63.0469H70.7188V54.75H79.7596C79.9259 54.75 80.0891 54.795 80.2319 54.8802C80.3747 54.9654 80.4918 55.0876 80.5708 55.234ZM67.9531 43.6875C70.4815 43.6908 72.9176 44.6378 74.7846 46.3429C76.6515 48.048 77.8148 50.3885 78.0467 52.9063H67.0313V43.6875H67.9531ZM33.8438 41.8438H65.1875V69.5H33.8438V41.8438ZM41.2188 82.4063C40.4894 82.4063 39.7765 82.19 39.1701 81.7848C38.5637 81.3796 38.091 80.8037 37.8119 80.1299C37.5328 79.4561 37.4598 78.7147 37.6021 77.9994C37.7444 77.2841 38.0956 76.627 38.6113 76.1113C39.127 75.5956 39.784 75.2444 40.4994 75.1021C41.2147 74.9598 41.9561 75.0328 42.6299 75.3119C43.3037 75.591 43.8796 76.0637 44.2848 76.6701C44.69 77.2765 44.9063 77.9894 44.9063 78.7188C44.9063 79.6967 44.5177 80.6347 43.8262 81.3262C43.1347 82.0177 42.1967 82.4063 41.2188 82.4063ZM41.2188 73.1875C39.9129 73.1899 38.6499 73.6539 37.6529 74.4973C36.656 75.3408 35.9892 76.5094 35.7705 77.7969H33.8438V71.3438H65.1875V77.7969H46.667C46.4483 76.5094 45.7816 75.3408 44.7846 74.4973C43.7876 73.6539 42.5246 73.1899 41.2188 73.1875ZM75.3281 82.4063C74.5988 82.4063 73.8859 82.19 73.2795 81.7848C72.6731 81.3796 72.2004 80.8037 71.9213 80.1299C71.6422 79.4561 71.5692 78.7147 71.7115 77.9994C71.8538 77.2841 72.205 76.627 72.7207 76.1113C73.2364 75.5956 73.8934 75.2444 74.6087 75.1021C75.324 74.9598 76.0655 75.0328 76.7393 75.3119C77.4131 75.591 77.989 76.0637 78.3942 76.6701C78.7994 77.2765 79.0156 77.9894 79.0156 78.7188C79.0156 79.6967 78.6271 80.6347 77.9356 81.3262C77.244 82.0177 76.3061 82.4063 75.3281 82.4063ZM84.5469 77.7969H80.7764C80.5597 76.5086 79.8935 75.3387 78.8961 74.495C77.8987 73.6513 76.6345 73.1884 75.3281 73.1884C74.0217 73.1884 72.7576 73.6513 71.7601 74.495C70.7627 75.3387 70.0965 76.5086 69.8798 77.7969H67.0313V54.75H68.875V63.9688C68.875 64.2132 68.9721 64.4477 69.145 64.6206C69.3179 64.7935 69.5524 64.8906 69.7969 64.8906H85.4549C85.4549 64.9238 85.4688 64.9561 85.4688 64.9902V66.7344H81.7813C81.2923 66.7344 80.8233 66.9286 80.4775 67.2744C80.1318 67.6202 79.9375 68.0891 79.9375 68.5781V70.4219C79.9375 70.9109 80.1318 71.3798 80.4775 71.7256C80.8233 72.0714 81.2923 72.2656 81.7813 72.2656H85.4688V74.1094H82.7031V75.9531H85.4688V76.875C85.4688 77.1195 85.3716 77.354 85.1987 77.5269C85.0259 77.6998 84.7914 77.7969 84.5469 77.7969ZM85.4688 68.5781V70.4219H81.7813V68.5781H85.4688Z" fill="#B6985A"/>
<circle cx="32" cy="18" r="18" fill="white"/>
</svg>
