<svg width="16" height="17" viewBox="0 0 16 17" fill="none" xmlns="http://www.w3.org/2000/svg">
<path d="M8 4.20703C8.70312 4.20703 9.37109 4.41797 10.0039 4.76953C10.6367 5.12109 11.1289 5.61328 11.4805 6.24609C11.832 6.87891 12.043 7.54688 12.043 8.25C12.043 8.98828 11.832 9.65625 11.4805 10.2891C11.1289 10.9219 10.6367 11.4141 10.0039 11.7656C9.37109 12.1172 8.70312 12.293 8 12.293C7.26172 12.293 6.59375 12.1172 5.96094 11.7656C5.32812 11.4141 4.83594 10.9219 4.48438 10.2891C4.13281 9.65625 3.95703 8.98828 3.95703 8.25C3.95703 7.54688 4.13281 6.87891 4.48438 6.24609C4.83594 5.61328 5.32812 5.12109 5.96094 4.76953C6.59375 4.41797 7.26172 4.20703 8 4.20703ZM8 10.8867C8.70312 10.8867 9.33594 10.6406 9.86328 10.1133C10.3555 9.62109 10.6367 8.98828 10.6367 8.25C10.6367 7.54688 10.3555 6.91406 9.86328 6.38672C9.33594 5.89453 8.70312 5.61328 8 5.61328C7.26172 5.61328 6.62891 5.89453 6.13672 6.38672C5.60938 6.91406 5.36328 7.54688 5.36328 8.25C5.36328 8.98828 5.60938 9.62109 6.13672 10.1133C6.62891 10.6406 7.26172 10.8867 8 10.8867ZM13.168 4.03125C13.168 3.78516 13.0625 3.57422 12.8867 3.36328C12.6758 3.1875 12.4648 3.08203 12.2188 3.08203C11.9375 3.08203 11.7266 3.1875 11.5508 3.36328C11.3398 3.57422 11.2695 3.78516 11.2695 4.03125C11.2695 4.3125 11.3398 4.52344 11.5508 4.69922C11.7266 4.91016 11.9375 4.98047 12.2188 4.98047C12.4648 4.98047 12.6758 4.91016 12.8516 4.69922C13.0273 4.52344 13.1328 4.3125 13.168 4.03125ZM15.8398 4.98047C15.8398 5.64844 15.875 6.73828 15.875 8.25C15.875 9.79688 15.8398 10.8867 15.8047 11.5547C15.7695 12.2227 15.6641 12.7852 15.5234 13.2773C15.3125 13.875 14.9609 14.4023 14.5391 14.8242C14.1172 15.2461 13.5898 15.5625 13.0273 15.7734C12.5352 15.9492 11.9375 16.0547 11.2695 16.0898C10.6016 16.125 9.51172 16.125 8 16.125C6.45312 16.125 5.36328 16.125 4.69531 16.0898C4.02734 16.0547 3.46484 15.9492 2.97266 15.7383C2.375 15.5625 1.84766 15.2461 1.42578 14.8242C1.00391 14.4023 0.6875 13.875 0.476562 13.2773C0.300781 12.7852 0.195312 12.2227 0.160156 11.5547C0.125 10.8867 0.125 9.79688 0.125 8.25C0.125 6.73828 0.125 5.64844 0.160156 4.98047C0.195312 4.3125 0.300781 3.71484 0.476562 3.22266C0.6875 2.66016 1.00391 2.13281 1.42578 1.71094C1.84766 1.28906 2.375 0.9375 2.97266 0.726562C3.46484 0.585938 4.02734 0.480469 4.69531 0.445312C5.36328 0.410156 6.45312 0.375 8 0.375C9.51172 0.375 10.6016 0.410156 11.2695 0.445312C11.9375 0.480469 12.5352 0.585938 13.0273 0.726562C13.5898 0.9375 14.1172 1.28906 14.5391 1.71094C14.9609 2.13281 15.3125 2.66016 15.5234 3.22266C15.6641 3.71484 15.7695 4.3125 15.8398 4.98047ZM14.1523 12.8906C14.293 12.5039 14.3633 11.8711 14.4336 10.9922C14.4336 10.5 14.4688 9.76172 14.4688 8.8125V7.6875C14.4688 6.73828 14.4336 6 14.4336 5.50781C14.3633 4.62891 14.293 3.99609 14.1523 3.60938C13.8711 2.90625 13.3438 2.37891 12.6406 2.09766C12.2539 1.95703 11.6211 1.88672 10.7422 1.81641C10.2148 1.81641 9.47656 1.78125 8.5625 1.78125H7.4375C6.48828 1.78125 5.75 1.81641 5.25781 1.81641C4.37891 1.88672 3.74609 1.95703 3.35938 2.09766C2.62109 2.37891 2.12891 2.90625 1.84766 3.60938C1.70703 3.99609 1.60156 4.62891 1.56641 5.50781C1.53125 6.03516 1.53125 6.77344 1.53125 7.6875V8.8125C1.53125 9.76172 1.53125 10.5 1.56641 10.9922C1.60156 11.8711 1.70703 12.5039 1.84766 12.8906C2.12891 13.6289 2.65625 14.1211 3.35938 14.4023C3.74609 14.543 4.37891 14.6484 5.25781 14.6836C5.75 14.7188 6.48828 14.7188 7.4375 14.7188H8.5625C9.51172 14.7188 10.25 14.7188 10.7422 14.6836C11.6211 14.6484 12.2539 14.543 12.6406 14.4023C13.3438 14.1211 13.8711 13.5938 14.1523 12.8906Z" fill="#B6985A"/>
</svg>
