<svg width="42" height="41" viewBox="0 0 42 41" fill="none" xmlns="http://www.w3.org/2000/svg">
<path d="M21.0661 0C17.4168 0 14.0281 0.92 10.9001 2.76C7.86411 4.53867 5.47211 6.946 3.72411 9.982C1.88411 13.11 0.964111 16.4987 0.964111 20.148C0.964111 23.7973 1.88411 27.186 3.72411 30.314C5.47211 33.35 7.86411 35.7573 10.9001 37.536C14.0281 39.376 17.4168 40.296 21.0661 40.296C24.7154 40.296 28.1041 39.376 31.2321 37.536C34.2681 35.7573 36.6754 33.35 38.4541 30.314C40.2941 27.186 41.2141 23.7973 41.2141 20.148C41.2141 16.4987 40.2941 13.11 38.4541 9.982C36.6754 6.946 34.2681 4.53867 31.2321 2.76C28.1041 0.92 24.7154 0 21.0661 0ZM27.2761 29.716C27.2148 29.808 27.1534 29.9153 27.0921 30.038C26.9388 30.2527 26.7394 30.3907 26.4941 30.452C26.1568 30.5747 25.7888 30.544 25.3901 30.36L20.2381 26.45L17.1101 23.966V23.874L26.6781 15.226L26.9541 14.812C26.9541 14.628 26.8468 14.582 26.6321 14.674L26.2641 14.812L14.0741 22.54L9.01411 20.838L8.60011 20.608C8.32411 20.424 8.17078 20.2093 8.14011 19.964C8.10945 19.78 8.15544 19.6267 8.27811 19.504C8.43144 19.3507 8.60011 19.228 8.78411 19.136L29.2081 11.132L29.6221 10.994C29.9594 10.902 30.2354 10.8867 30.4501 10.948C30.7261 11.0093 30.8641 11.224 30.8641 11.592L27.2761 29.716Z" fill="#0088CC"/>
</svg>
