<svg width="43" height="46" viewBox="0 0 43 46" fill="none" xmlns="http://www.w3.org/2000/svg">
<path d="M42.0845 11.9144C41.5939 9.15436 40.6585 6.93103 39.2785 5.24436C37.7452 3.43503 35.6599 2.19303 33.0225 1.51836C25.2332 -0.474974 17.8272 -0.505641 10.8045 1.42636C8.41253 2.10103 6.4652 3.22036 4.96253 4.78436C3.45987 6.31769 2.44787 8.28036 1.92653 10.6724C0.7612 15.7324 0.653867 20.9764 1.60453 26.4044C2.52453 31.6484 5.34587 35.037 10.0685 36.5704C10.4365 36.693 10.6819 36.8617 10.8045 37.0764C10.9579 37.2604 11.0345 37.5517 11.0345 37.9504C11.0039 39.6984 10.9885 42.3357 10.9885 45.8624L11.2645 46.0004L11.3565 45.8624C11.6632 45.525 11.8932 45.2797 12.0465 45.1264C14.6839 42.2437 16.6772 40.097 18.0265 38.6864C18.4252 38.2877 18.7932 38.1037 19.1305 38.1344C23.4852 38.349 28.0392 37.8737 32.7925 36.7084C37.6379 35.543 40.6125 32.6144 41.7165 27.9224C42.9432 22.6784 43.0659 17.3424 42.0845 11.9144ZM22.8565 6.53236C24.8805 6.59369 26.7512 7.16103 28.4685 8.23436C30.1859 9.30769 31.5505 10.749 32.5625 12.5584C33.6052 14.337 34.1419 16.2844 34.1725 18.4004V18.6764C34.1419 19.0444 34.0959 19.305 34.0345 19.4584C33.9425 19.673 33.7279 19.7957 33.3905 19.8264C33.0839 19.8264 32.8692 19.673 32.7465 19.3664C32.6852 19.213 32.6545 18.937 32.6545 18.5384V18.4464C32.5319 16.453 32.0872 14.7357 31.3205 13.2944C30.4925 11.761 29.2659 10.5037 27.6405 9.52236C27.0272 9.15436 26.2759 8.84769 25.3865 8.60236C24.8652 8.47969 24.0832 8.32636 23.0405 8.14236L22.3965 8.05036C22.0899 8.01969 21.8752 7.97369 21.7525 7.91236C21.5379 7.78969 21.4459 7.59036 21.4765 7.31436C21.5072 6.97703 21.6605 6.74703 21.9365 6.62436C22.0899 6.56303 22.3659 6.53236 22.7645 6.53236H22.8565ZM23.7305 11.1324C23.6999 11.1324 23.6385 11.117 23.5465 11.0864C23.1479 11.0557 22.8872 10.9944 22.7645 10.9024C22.5192 10.749 22.4272 10.5037 22.4885 10.1664C22.5499 9.82903 22.7032 9.62969 22.9485 9.56836C23.1019 9.53769 23.3779 9.55303 23.7765 9.61436L23.9605 9.66036C26.1072 9.96702 27.8399 10.841 29.1585 12.2824C30.4772 13.693 31.1365 15.395 31.1365 17.3884V17.6184C31.1059 17.9557 31.0599 18.1857 30.9985 18.3084C30.9065 18.4924 30.7072 18.5997 30.4005 18.6304C30.1245 18.6304 29.9252 18.523 29.8025 18.3084C29.7412 18.1857 29.6952 17.9557 29.6645 17.6184V17.5264C29.4192 15.5637 28.8365 14.107 27.9165 13.1564C27.0272 12.175 25.6319 11.5004 23.7305 11.1324ZM28.1465 16.8824C28.0852 17.281 27.9012 17.5264 27.5945 17.6184C27.3492 17.649 27.1499 17.6184 26.9965 17.5264C26.8432 17.4037 26.7512 17.235 26.7205 17.0204C26.5672 15.2724 25.6319 14.3064 23.9145 14.1224C23.6692 14.061 23.5005 13.9537 23.4085 13.8004C23.3165 13.6164 23.3012 13.417 23.3625 13.2024C23.4239 12.9877 23.5312 12.8497 23.6845 12.7884C23.8685 12.727 24.1599 12.6964 24.5585 12.6964C25.1412 12.6964 25.7239 12.911 26.3065 13.3404C26.9199 13.739 27.3952 14.2757 27.7325 14.9504C28.1005 15.5944 28.2385 16.2384 28.1465 16.8824ZM28.2845 31.8324C19.2072 28.1217 12.9665 21.7737 9.56253 12.7884C9.25587 12.0217 9.25587 11.1784 9.56253 10.2584C9.89987 9.33836 10.4365 8.55636 11.1725 7.91236C11.9085 7.26836 12.6905 6.94636 13.5185 6.94636C14.1625 6.94636 14.7145 7.17636 15.1745 7.63636C16.4625 8.95503 17.5665 10.427 18.4865 12.0524C18.8239 12.6657 18.9465 13.233 18.8545 13.7544C18.7625 14.2757 18.4252 14.7664 17.8425 15.2264C17.0452 15.8397 16.6005 16.3917 16.5085 16.8824C16.4165 17.3424 16.6005 18.0324 17.0605 18.9524C18.2565 21.467 20.2499 23.353 23.0405 24.6104C23.5925 24.825 24.0679 24.8864 24.4665 24.7944C24.8959 24.6717 25.2945 24.3804 25.6625 23.9204C26.3679 23.0617 26.9812 22.5864 27.5025 22.4944C28.0545 22.4024 28.8212 22.6477 29.8025 23.2304C30.8145 23.8744 32.0565 24.8097 33.5285 26.0364C34.0805 26.527 34.3412 26.9717 34.3105 27.3704C34.3105 28.229 33.9732 29.0724 33.2985 29.9004C32.6239 30.7284 31.8112 31.3417 30.8605 31.7404C29.9099 32.1084 29.0512 32.139 28.2845 31.8324Z" fill="#675CA8"/>
</svg>
