<svg width="20" height="12" viewBox="0 0 20 12" fill="none" xmlns="http://www.w3.org/2000/svg">
<path d="M19.0352 1.39844C18.9648 1.75 18.6836 2.34766 18.1914 3.15625C17.8398 3.75391 17.418 4.42188 16.9258 5.19531C16.5039 5.82812 16.2578 6.14453 16.2578 6.14453C16.1172 6.35547 16.0469 6.53125 16.0469 6.63672C16.0469 6.77734 16.1172 6.91797 16.2578 7.05859L16.5742 7.41016C18.2617 9.16797 19.2109 10.3633 19.4219 10.9961C19.4922 11.2773 19.457 11.5234 19.3164 11.6641C19.1758 11.8047 19 11.875 18.7188 11.875H16.6445C16.3633 11.875 16.1523 11.8047 15.9414 11.6289C15.8008 11.5586 15.5195 11.3125 15.168 10.8906C14.8164 10.4688 14.5 10.1172 14.2188 9.83594C13.2695 8.95703 12.5664 8.5 12.1445 8.5C11.9336 8.5 11.793 8.53516 11.7227 8.60547C11.6523 8.67578 11.6172 8.85156 11.6172 9.0625C11.582 9.23828 11.582 9.58984 11.582 10.1523V11.0664C11.582 11.3477 11.5117 11.5586 11.3711 11.6641C11.1602 11.8047 10.7383 11.875 10.1055 11.875C8.98047 11.875 7.89062 11.5586 6.76562 10.8906C5.64062 10.2578 4.65625 9.30859 3.8125 8.07812C3.00391 7.02344 2.33594 5.93359 1.80859 4.80859C1.38672 3.96484 1.03516 3.19141 0.789062 2.45312C0.613281 1.89062 0.542969 1.46875 0.542969 1.22266C0.542969 0.835938 0.753906 0.625 1.24609 0.625H3.32031C3.56641 0.625 3.74219 0.695312 3.88281 0.800781C4.02344 0.941406 4.12891 1.15234 4.23438 1.43359C4.55078 2.38281 4.9375 3.29688 5.42969 4.17578C5.85156 5.01953 6.27344 5.6875 6.69531 6.17969C7.11719 6.70703 7.43359 6.95312 7.67969 6.95312C7.82031 6.95312 7.89062 6.91797 7.96094 6.8125C8.03125 6.70703 8.06641 6.49609 8.06641 6.17969V3.12109C8.03125 2.76953 7.96094 2.41797 7.82031 2.13672C7.75 1.99609 7.60938 1.82031 7.46875 1.60938C7.29297 1.39844 7.22266 1.25781 7.22266 1.11719C7.22266 0.976562 7.25781 0.871094 7.36328 0.765625C7.46875 0.695312 7.60938 0.625 7.75 0.625H11.0195C11.2305 0.625 11.3711 0.695312 11.4414 0.800781C11.5117 0.941406 11.582 1.11719 11.582 1.39844V5.47656C11.582 5.6875 11.6172 5.86328 11.6875 5.93359C11.7578 6.03906 11.8281 6.07422 11.9336 6.07422C12.0391 6.07422 12.1797 6.03906 12.3203 5.96875C12.4609 5.89844 12.6367 5.72266 12.8828 5.44141C13.3047 4.94922 13.7617 4.35156 14.2188 3.61328C14.5 3.12109 14.8164 2.55859 15.0977 1.92578L15.4492 1.22266C15.5898 0.835938 15.9062 0.625 16.3281 0.625H18.4023C18.9648 0.625 19.1758 0.90625 19.0352 1.39844Z" fill="#B6985A"/>
</svg>
