<svg width="40" height="41" viewBox="0 0 40 41" fill="none" xmlns="http://www.w3.org/2000/svg">
<path d="M20.332 0C16.7747 0 13.478 0.889334 10.442 2.668C7.498 4.416 5.152 6.762 3.404 9.706C1.62533 12.7727 0.736 16.0847 0.736 19.642C0.736 21.4513 0.966 23.2147 1.426 24.932C1.91667 26.6493 2.622 28.2593 3.542 29.762L0 40.296L10.856 36.8C13.7693 38.4253 16.928 39.238 20.332 39.238C23.8893 39.238 27.186 38.3487 30.222 36.57C33.166 34.822 35.512 32.476 37.26 29.532C39.0387 26.496 39.928 23.1993 39.928 19.642C39.928 16.0847 39.0387 12.788 37.26 9.752C35.512 6.77733 33.166 4.416 30.222 2.668C27.186 0.889334 23.8893 0 20.332 0ZM29.946 26.404C29.762 26.956 29.3327 27.462 28.658 27.922C28.0447 28.3207 27.3853 28.5967 26.68 28.75C26.128 28.8727 25.5453 28.888 24.932 28.796C23.9507 28.6427 22.6167 28.2133 20.93 27.508C18.0167 26.312 15.3333 23.966 12.88 20.47L12.65 20.194C11.3927 18.446 10.764 16.8053 10.764 15.272C10.764 14.26 10.9787 13.386 11.408 12.65C11.6227 12.2207 11.96 11.776 12.42 11.316L12.466 11.27C12.65 11.086 12.8953 10.948 13.202 10.856C13.5087 10.7333 13.8 10.672 14.076 10.672C14.3827 10.672 14.582 10.6873 14.674 10.718C14.95 10.718 15.1493 10.764 15.272 10.856C15.4253 10.948 15.5787 11.1627 15.732 11.5C16.1 12.3587 16.5907 13.5547 17.204 15.088C17.388 15.3947 17.4033 15.686 17.25 15.962C17.1273 16.2073 16.9587 16.468 16.744 16.744L16.008 17.526L15.962 17.618C15.8393 17.802 15.7627 17.94 15.732 18.032C15.6707 18.1853 15.7013 18.354 15.824 18.538C16.0387 18.9673 16.3453 19.4273 16.744 19.918C17.296 20.6847 17.8787 21.344 18.492 21.896C19.78 23.0307 21.0833 23.8127 22.402 24.242C22.586 24.334 22.7853 24.3647 23 24.334C23.2453 24.3033 23.4293 24.2113 23.552 24.058C23.736 23.874 24.0733 23.4293 24.564 22.724L24.84 22.356C25.1467 21.9267 25.5453 21.8193 26.036 22.034C26.22 22.0953 27.0173 22.4633 28.428 23.138L29.67 23.736C30.0073 23.8893 30.1913 24.0273 30.222 24.15C30.2833 24.2727 30.2987 24.5333 30.268 24.932C30.2067 25.4227 30.0993 25.9133 29.946 26.404Z" fill="#25D366"/>
</svg>
