<svg width="20" height="14" viewBox="0 0 20 14" fill="none" xmlns="http://www.w3.org/2000/svg">
<path d="M19.2109 2.60938C19.3516 3.24219 19.4922 4.22656 19.5625 5.49219L19.5977 7.25L19.5625 9.00781C19.4922 10.3438 19.3516 11.293 19.2109 11.9258C19.0703 12.3477 18.8594 12.6992 18.5781 12.9805C18.2617 13.2969 17.9102 13.5078 17.4883 13.6133C16.8555 13.7891 15.4492 13.8945 13.1992 13.9648L10 14L6.80078 13.9648C4.55078 13.8945 3.10938 13.7891 2.51172 13.6133C2.08984 13.5078 1.70312 13.2969 1.42188 12.9805C1.10547 12.6992 0.894531 12.3477 0.789062 11.9258C0.613281 11.293 0.507812 10.3438 0.4375 9.00781L0.402344 7.25C0.402344 6.75781 0.402344 6.16016 0.4375 5.49219C0.507812 4.22656 0.613281 3.24219 0.789062 2.60938C0.894531 2.1875 1.10547 1.83594 1.42188 1.51953C1.70312 1.23828 2.08984 1.02734 2.51172 0.886719C3.10938 0.746094 4.55078 0.605469 6.80078 0.535156L10 0.5L13.1992 0.535156C15.4492 0.605469 16.8555 0.746094 17.4883 0.886719C17.9102 1.02734 18.2617 1.23828 18.5781 1.51953C18.8594 1.83594 19.0703 2.1875 19.2109 2.60938ZM8.03125 10.1328L13.0586 7.25L8.03125 4.40234V10.1328Z" fill="#B6985A"/>
</svg>
