<svg width="14" height="11" viewBox="0 0 14 11" fill="none" xmlns="http://www.w3.org/2000/svg">
<path d="M14 3.54687C13.7656 3.80469 13.5 4.03125 13.2188 4.22656C11.9141 5.10938 10.6016 6 9.32813 6.92188C8.67188 7.40625 7.85938 8 7.00781 8H7H6.99219C6.14063 8 5.32812 7.40625 4.67188 6.92188C3.39844 5.99219 2.08594 5.10938 0.789062 4.22656C0.5 4.03125 0.234375 3.80469 0 3.54687V9.75C0 10.4375 0.5625 11 1.25 11H12.75C13.4375 11 14 10.4375 14 9.75V3.54687ZM14 1.25C14 0.5625 13.4297 0 12.75 0H1.25C0.414062 0 0 0.65625 0 1.42188C0 2.13281 0.789063 3.01562 1.34375 3.39063C2.55469 4.23438 3.78125 5.07812 4.99219 5.92969C5.5 6.28125 6.35938 7 6.99219 7H7H7.00781C7.64063 7 8.5 6.28125 9.00781 5.92969C10.2187 5.07812 11.4453 4.23438 12.6641 3.39063C13.3516 2.91406 14 2.125 14 1.25Z" fill="#B6985A"/>
</svg>
