<svg width="11" height="15" viewBox="0 0 11 15" fill="none" xmlns="http://www.w3.org/2000/svg">
<path d="M5.5 0C2.46728 0 0 2.43698 0 5.43241C0 9.14984 4.92196 14.6072 5.13152 14.8377C5.32835 15.0543 5.67201 15.0539 5.86848 14.8377C6.07804 14.6072 11 9.14984 11 5.43241C10.9999 2.43698 8.53269 0 5.5 0ZM5.5 8.16561C3.97416 8.16561 2.73284 6.9395 2.73284 5.43241C2.73284 3.92532 3.97419 2.69924 5.5 2.69924C7.02581 2.69924 8.26713 3.92535 8.26713 5.43244C8.26713 6.93953 7.02581 8.16561 5.5 8.16561Z" fill="#B6985A"/>
</svg>
