<svg width="11" height="11" viewBox="0 0 11 11" fill="none" xmlns="http://www.w3.org/2000/svg">
<path d="M11 8.6875C11 8.63281 11 8.57813 10.9766 8.52344C10.9219 8.35938 10.5391 8.1875 10.3828 8.10938C9.9375 7.85938 9.48438 7.61719 9.04688 7.35938C8.84375 7.23438 8.59375 7 8.35156 7C7.875 7 7.17969 8.41406 6.75781 8.41406C6.54688 8.41406 6.27344 8.21875 6.08594 8.10938C4.66406 7.32031 3.67969 6.33594 2.89062 4.91406C2.78125 4.72656 2.58594 4.45312 2.58594 4.24219C2.58594 3.82031 4 3.125 4 2.64844C4 2.40625 3.76563 2.15625 3.64063 1.95313C3.38281 1.51563 3.14063 1.0625 2.89062 0.617188C2.8125 0.460938 2.64063 0.0781251 2.47656 0.0234376C2.42188 0 2.36719 0 2.3125 0C2.03125 0 1.48438 0.125 1.22656 0.242188C0.84375 0.40625 0.59375 0.84375 0.398438 1.19531C0.148438 1.65625 0 2.125 0 2.64844C0 3.375 0.296875 4.03125 0.539062 4.69531C0.710938 5.17188 0.921875 5.63281 1.1875 6.0625C2.00781 7.39063 3.60938 8.99219 4.9375 9.8125C5.36719 10.0781 5.82813 10.2891 6.30469 10.4609C6.96875 10.7031 7.625 11 8.35156 11C8.875 11 9.34375 10.8516 9.80469 10.6016C10.1563 10.4063 10.5938 10.1563 10.7578 9.77344C10.875 9.51563 11 8.96875 11 8.6875Z" fill="#B6985A"/>
</svg>
