<svg width="20" height="20" viewBox="0 0 20 20" fill="none" xmlns="http://www.w3.org/2000/svg">
<path d="M9.99466 4.80985e-06C4.47506 0.0011766 0.00149128 4.47899 0.00266246 10.0015C0.00305285 11.9137 0.551518 13.7857 1.58294 15.3956L0.0280381 19.432C-0.0547646 19.6467 0.0520474 19.8879 0.266608 19.9707C0.314588 19.9892 0.365534 19.9987 0.416949 19.9987C0.464655 19.9989 0.51201 19.9907 0.556867 19.9745L4.72109 18.4871C9.40629 21.4066 15.5699 19.9732 18.4879 15.2855C21.4058 10.5979 19.9733 4.43106 15.288 1.51158C13.6998 0.521883 11.8658 -0.001831 9.99466 4.80985e-06Z" fill="#B6985A"/>
<path d="M14.7595 11.7079C14.7595 11.7079 13.7393 11.208 13.1005 10.8747C12.3776 10.5022 11.5281 11.1997 11.1284 11.5963C10.5062 11.3572 9.93792 10.9963 9.45684 10.5347C8.99543 10.0534 8.6347 9.48489 8.39578 8.86232C8.79223 8.46153 9.48764 7.61241 9.11704 6.88914C8.78805 6.24918 8.28421 5.22925 8.28421 5.22843C8.21351 5.08805 8.06988 4.99942 7.91274 4.99927H7.07991C5.86703 5.20886 4.98517 6.2677 4.99782 7.49909C4.99782 8.80732 6.56272 11.3205 7.61796 12.3771C8.6732 13.4336 11.185 14.9986 12.4934 14.9986C13.7242 15.0112 14.7825 14.1289 14.9919 12.9154V12.0821C14.9921 11.9232 14.902 11.7781 14.7595 11.7079Z" fill="#FAFAFA"/>
</svg>
