<svg width="255" height="293" viewBox="0 0 255 293" fill="none" xmlns="http://www.w3.org/2000/svg">
<path d="M91.1738 172V170.4L96.7738 169.6V110.4L91.1738 109.6V108H104.774V169.6L110.374 170.4V172H91.1738Z" fill="#B6985A"/>
<path d="M140.512 173.6C133.632 173.6 128.272 172.16 124.432 169.28C120.592 166.4 118.672 162.293 118.672 156.96C118.672 152.16 120.032 148.293 122.752 145.36C125.472 142.427 129.072 139.813 133.552 137.52L129.872 135.12C127.099 133.2 124.939 131.12 123.392 128.88C121.899 126.587 121.152 124.187 121.152 121.68C121.152 118.587 122.032 115.893 123.792 113.6C125.605 111.307 128.005 109.547 130.992 108.32C133.979 107.04 137.205 106.4 140.672 106.4C143.659 106.4 146.512 106.907 149.232 107.92C152.005 108.933 154.245 110.453 155.952 112.48C157.712 114.507 158.592 116.96 158.592 119.84C158.592 122.4 158.059 124.64 156.992 126.56C155.925 128.427 154.592 130.027 152.992 131.36C151.392 132.64 149.392 133.973 146.992 135.36L149.072 136.64C153.179 139.253 156.379 141.947 158.672 144.72C161.019 147.44 162.192 150.827 162.192 154.88C162.192 158.88 161.152 162.293 159.072 165.12C156.992 167.947 154.299 170.08 150.992 171.52C147.685 172.907 144.192 173.6 140.512 173.6ZM144.752 134C147.312 132.133 149.045 130.027 149.952 127.68C150.859 125.28 151.312 122.747 151.312 120.08C151.312 116.56 150.245 113.707 148.112 111.52C145.979 109.333 143.179 108.24 139.712 108.24C137.739 108.24 135.872 108.64 134.112 109.44C132.352 110.187 130.939 111.253 129.872 112.64C128.805 114.027 128.272 115.6 128.272 117.36C128.272 119.6 128.939 121.6 130.272 123.36C131.605 125.12 133.605 126.88 136.272 128.64L144.752 134ZM140.112 171.76C142.992 171.76 145.525 171.2 147.712 170.08C149.952 168.96 151.659 167.467 152.832 165.6C154.005 163.733 154.592 161.733 154.592 159.6C154.592 156.827 153.765 154.24 152.112 151.84C150.512 149.44 148.005 147.04 144.592 144.64L135.872 139.04C132.885 141.227 130.619 143.947 129.072 147.2C127.579 150.453 126.832 153.867 126.832 157.44C126.832 161.547 127.899 164.96 130.032 167.68C132.219 170.4 135.579 171.76 140.112 171.76Z" fill="#B6985A"/>
<path d="M114.253 208.16C113.879 208.16 113.586 208.069 113.373 207.888C113.159 207.707 113.053 207.44 113.053 207.088C113.053 206.789 113.143 206.555 113.325 206.384C113.506 206.213 113.725 206.128 113.981 206.128C114.151 206.128 114.295 206.165 114.413 206.24C114.53 206.304 114.615 206.373 114.669 206.448C114.733 206.523 114.77 206.571 114.781 206.592C114.642 206.72 114.573 206.859 114.573 207.008C114.573 207.179 114.679 207.264 114.893 207.264C115.618 207.264 116.061 205.717 116.221 202.624L116.317 200.72L114.861 200.032V199.712H122.045V200.032L120.925 200.192V207.504L122.077 207.664V208H118.333V207.664L119.325 207.504V200.112H116.733L116.605 202.64C116.541 203.931 116.418 204.976 116.237 205.776C116.066 206.576 115.821 207.173 115.501 207.568C115.181 207.963 114.765 208.16 114.253 208.16Z" fill="#B6985A"/>
<path d="M127.428 208.16C126.639 208.16 125.924 207.984 125.284 207.632C124.644 207.269 124.137 206.763 123.764 206.112C123.391 205.461 123.204 204.709 123.204 203.856C123.204 203.003 123.385 202.256 123.748 201.616C124.121 200.965 124.617 200.464 125.236 200.112C125.865 199.749 126.564 199.568 127.332 199.568C128.004 199.568 128.607 199.717 129.14 200.016C129.673 200.315 130.089 200.731 130.388 201.264C130.687 201.787 130.841 202.389 130.852 203.072H124.964V204.656C124.964 205.595 125.172 206.357 125.588 206.944C126.015 207.52 126.628 207.808 127.428 207.808C128.164 207.808 128.815 207.6 129.38 207.184C129.945 206.768 130.292 206.229 130.42 205.568H130.788C130.639 206.357 130.26 206.987 129.652 207.456C129.044 207.925 128.303 208.16 127.428 208.16ZM129.092 202.672C129.092 201.744 128.948 201.056 128.66 200.608C128.372 200.149 127.924 199.92 127.316 199.92C126.601 199.92 126.047 200.171 125.652 200.672C125.257 201.173 125.033 201.84 124.98 202.672H129.092Z" fill="#B6985A"/>
<path d="M133.757 208V207.68L135.037 207.52V200.112H133.661L132.269 202.752H131.821L132.061 199.712H139.613L139.853 202.752H139.405L137.997 200.112H136.637V207.52L137.917 207.68V208H133.757Z" fill="#B6985A"/>
<path fill-rule="evenodd" clip-rule="evenodd" d="M127.5 1.1547L1.62744 73.8274V219.173L127.5 291.845L253.373 219.173V73.8274L127.5 1.1547ZM254.373 73.25L127.5 0L0.627441 73.25V219.75L127.5 293L254.373 219.75V73.25Z" fill="#B6985A"/>
</svg>
