<svg width="255" height="293" viewBox="0 0 255 293" fill="none" xmlns="http://www.w3.org/2000/svg">
<path d="M21.4541 165.84L38.3341 148.64C42.7608 144.053 46.1208 139.6 48.4141 135.28C50.7608 130.907 51.9341 126.4 51.9341 121.76C51.9341 117.067 50.9208 113.653 48.8941 111.52C46.9208 109.333 44.2274 108.24 40.8141 108.24C38.1474 108.24 35.8274 108.96 33.8541 110.4C31.8808 111.84 30.8941 113.733 30.8941 116.08C30.8941 118.907 32.3074 121.013 35.1341 122.4C35.1341 124.32 34.5474 125.787 33.3741 126.8C32.2008 127.813 30.8141 128.32 29.2141 128.32C27.5074 128.32 26.0408 127.707 24.8141 126.48C23.5874 125.2 22.9741 123.467 22.9741 121.28C22.9741 118.4 23.8541 115.84 25.6141 113.6C27.3741 111.307 29.7208 109.547 32.6541 108.32C35.5874 107.04 38.7341 106.4 42.0941 106.4C48.6008 106.4 53.4274 107.947 56.5741 111.04C59.7208 114.08 61.2941 118.107 61.2941 123.12C61.2941 126.16 60.6541 128.96 59.3741 131.52C58.1474 134.027 56.6541 136.213 54.8941 138.08C53.1874 139.947 50.8408 142.187 47.8541 144.8L45.6141 146.72L26.4941 163.6H56.3341L59.6141 151.76H61.6941V172H21.4541V165.84Z" fill="#B6985A"/>
<path d="M95.3166 173.6C90.6766 173.6 86.6233 172.347 83.1566 169.84C79.6899 167.333 76.9966 163.573 75.0766 158.56C73.1566 153.493 72.1966 147.307 72.1966 140C72.1966 132.693 73.1566 126.533 75.0766 121.52C76.9966 116.453 79.6899 112.667 83.1566 110.16C86.6233 107.653 90.6766 106.4 95.3166 106.4C99.9566 106.4 104.01 107.653 107.477 110.16C110.943 112.667 113.637 116.453 115.557 121.52C117.477 126.533 118.437 132.693 118.437 140C118.437 147.307 117.477 153.493 115.557 158.56C113.637 163.573 110.943 167.333 107.477 169.84C104.01 172.347 99.9566 173.6 95.3166 173.6ZM95.3166 171.76C99.3166 171.76 102.463 169.813 104.757 165.92C107.05 162.027 108.197 155.947 108.197 147.68V132.24C108.197 124.027 107.05 117.973 104.757 114.08C102.463 110.187 99.3166 108.24 95.3166 108.24C91.3166 108.24 88.1699 110.187 85.8766 114.08C83.5833 117.973 82.4366 124.027 82.4366 132.24V147.68C82.4366 155.893 83.5833 161.973 85.8766 165.92C88.1699 169.813 91.3166 171.76 95.3166 171.76Z" fill="#B6985A"/>
<path d="M151.02 173.6C146.38 173.6 142.326 172.347 138.86 169.84C135.393 167.333 132.7 163.573 130.78 158.56C128.86 153.493 127.9 147.307 127.9 140C127.9 132.693 128.86 126.533 130.78 121.52C132.7 116.453 135.393 112.667 138.86 110.16C142.326 107.653 146.38 106.4 151.02 106.4C155.66 106.4 159.713 107.653 163.18 110.16C166.646 112.667 169.34 116.453 171.26 121.52C173.18 126.533 174.14 132.693 174.14 140C174.14 147.307 173.18 153.493 171.26 158.56C169.34 163.573 166.646 167.333 163.18 169.84C159.713 172.347 155.66 173.6 151.02 173.6ZM151.02 171.76C155.02 171.76 158.166 169.813 160.46 165.92C162.753 162.027 163.9 155.947 163.9 147.68V132.24C163.9 124.027 162.753 117.973 160.46 114.08C158.166 110.187 155.02 108.24 151.02 108.24C147.02 108.24 143.873 110.187 141.58 114.08C139.286 117.973 138.14 124.027 138.14 132.24V147.68C138.14 155.893 139.286 161.973 141.58 165.92C143.873 169.813 147.02 171.76 151.02 171.76Z" fill="#B6985A"/>
<path d="M206.723 173.6C202.083 173.6 198.03 172.347 194.563 169.84C191.096 167.333 188.403 163.573 186.483 158.56C184.563 153.493 183.603 147.307 183.603 140C183.603 132.693 184.563 126.533 186.483 121.52C188.403 116.453 191.096 112.667 194.563 110.16C198.03 107.653 202.083 106.4 206.723 106.4C211.363 106.4 215.416 107.653 218.883 110.16C222.35 112.667 225.043 116.453 226.963 121.52C228.883 126.533 229.843 132.693 229.843 140C229.843 147.307 228.883 153.493 226.963 158.56C225.043 163.573 222.35 167.333 218.883 169.84C215.416 172.347 211.363 173.6 206.723 173.6ZM206.723 171.76C210.723 171.76 213.87 169.813 216.163 165.92C218.456 162.027 219.603 155.947 219.603 147.68V132.24C219.603 124.027 218.456 117.973 216.163 114.08C213.87 110.187 210.723 108.24 206.723 108.24C202.723 108.24 199.576 110.187 197.283 114.08C194.99 117.973 193.843 124.027 193.843 132.24V147.68C193.843 155.893 194.99 161.973 197.283 165.92C199.576 169.813 202.723 171.76 206.723 171.76Z" fill="#B6985A"/>
<path fill-rule="evenodd" clip-rule="evenodd" d="M127.5 1.1547L1.62744 73.8274V219.173L127.5 291.845L253.373 219.173V73.8274L127.5 1.1547ZM254.373 73.25L127.5 0L0.627441 73.25V219.75L127.5 293L254.373 219.75V73.25Z" fill="#B6985A"/>
<path d="M93.6431 208V207.68L94.7631 207.52V200.192L93.6431 200.032V199.712H97.3231V200.032L96.3631 200.192V206.416L100.411 200.512V200.192L99.4511 200.032V199.712H103.131V200.032L102.011 200.192V207.52L103.131 207.68V208H99.4511V207.68L100.411 207.52V201.184L96.3631 207.104V207.52L97.3231 207.68V208H93.6431Z" fill="#B6985A"/>
<path d="M107.554 208.16C106.37 208.16 105.506 207.995 104.962 207.664C104.429 207.323 104.162 206.896 104.162 206.384C104.162 206.064 104.253 205.808 104.434 205.616C104.626 205.413 104.877 205.312 105.186 205.312C105.389 205.312 105.57 205.365 105.73 205.472C105.89 205.579 106.002 205.728 106.066 205.92C105.885 206.133 105.794 206.357 105.794 206.592C105.794 206.955 105.954 207.259 106.274 207.504C106.605 207.739 107.032 207.856 107.554 207.856C108.194 207.856 108.706 207.691 109.09 207.36C109.485 207.019 109.682 206.523 109.682 205.872V205.664C109.682 205.077 109.464 204.629 109.026 204.32C108.6 204 108.066 203.84 107.426 203.84H106.53V203.456H107.426C108.034 203.456 108.498 203.312 108.818 203.024C109.138 202.725 109.298 202.293 109.298 201.728V201.664C109.298 200.469 108.733 199.872 107.602 199.872C106.994 199.872 106.434 200.021 105.922 200.32L104.962 202.608H104.626L104.802 199.568L105.762 200.032C106.36 199.723 106.984 199.568 107.634 199.568C108.829 199.568 109.693 199.744 110.226 200.096C110.76 200.437 111.026 200.955 111.026 201.648C111.026 202.149 110.84 202.565 110.466 202.896C110.104 203.227 109.554 203.451 108.818 203.568V203.584C109.682 203.669 110.328 203.899 110.754 204.272C111.192 204.645 111.41 205.141 111.41 205.76C111.41 206.517 111.09 207.109 110.45 207.536C109.81 207.952 108.845 208.16 107.554 208.16Z" fill="#B6985A"/>
<path d="M120.77 210.64H120.322L118.914 208H113.762L112.37 210.64H111.922L112.162 207.6H112.674C112.909 207.6 113.138 207.499 113.362 207.296C113.586 207.093 113.784 206.8 113.954 206.416C114.104 206.064 114.221 205.627 114.306 205.104C114.402 204.581 114.488 203.76 114.562 202.64L114.69 200.72L113.234 200.032V199.712H120.514V200.032L119.394 200.192V207.6H120.53L120.77 210.64ZM117.794 200.112H115.138L114.962 202.64C114.888 203.771 114.802 204.608 114.706 205.152C114.61 205.685 114.493 206.133 114.354 206.496C114.258 206.731 114.152 206.933 114.034 207.104C113.928 207.264 113.832 207.381 113.746 207.456C113.672 207.531 113.624 207.579 113.602 207.6H117.794V200.112Z" fill="#B6985A"/>
<path d="M125.795 208.16C125.006 208.16 124.291 207.984 123.651 207.632C123.011 207.269 122.504 206.763 122.131 206.112C121.758 205.461 121.571 204.709 121.571 203.856C121.571 203.003 121.752 202.256 122.115 201.616C122.488 200.965 122.984 200.464 123.603 200.112C124.232 199.749 124.931 199.568 125.699 199.568C126.371 199.568 126.974 199.717 127.507 200.016C128.04 200.315 128.456 200.731 128.755 201.264C129.054 201.787 129.208 202.389 129.219 203.072H123.331V204.656C123.331 205.595 123.539 206.357 123.955 206.944C124.382 207.52 124.995 207.808 125.795 207.808C126.531 207.808 127.182 207.6 127.747 207.184C128.312 206.768 128.659 206.229 128.787 205.568H129.155C129.006 206.357 128.627 206.987 128.019 207.456C127.411 207.925 126.67 208.16 125.795 208.16ZM127.459 202.672C127.459 201.744 127.315 201.056 127.027 200.608C126.739 200.149 126.291 199.92 125.683 199.92C124.968 199.92 124.414 200.171 124.019 200.672C123.624 201.173 123.4 201.84 123.347 202.672H127.459Z" fill="#B6985A"/>
<path d="M130.807 208.16C130.434 208.16 130.141 208.069 129.927 207.888C129.714 207.707 129.607 207.44 129.607 207.088C129.607 206.789 129.698 206.555 129.879 206.384C130.061 206.213 130.279 206.128 130.535 206.128C130.706 206.128 130.85 206.165 130.967 206.24C131.085 206.304 131.17 206.373 131.223 206.448C131.287 206.523 131.325 206.571 131.335 206.592C131.197 206.72 131.127 206.859 131.127 207.008C131.127 207.179 131.234 207.264 131.447 207.264C132.173 207.264 132.615 205.717 132.775 202.624L132.871 200.72L131.415 200.032V199.712H138.599V200.032L137.479 200.192V207.504L138.631 207.664V208H134.887V207.664L135.879 207.504V200.112H133.287L133.159 202.64C133.095 203.931 132.973 204.976 132.791 205.776C132.621 206.576 132.375 207.173 132.055 207.568C131.735 207.963 131.319 208.16 130.807 208.16Z" fill="#B6985A"/>
<path d="M139.502 208V207.68L140.622 207.52V200.192L139.502 200.032V199.712H143.182V200.032L142.222 200.192V206.416L146.27 200.512V200.192L145.31 200.032V199.712H148.99V200.032L147.87 200.192V207.52L148.99 207.68V208H145.31V207.68L146.27 207.52V201.184L142.222 207.104V207.52L143.182 207.68V208H139.502Z" fill="#B6985A"/>
<path d="M149.862 208V207.68L150.982 207.52V200.192L149.862 200.032V199.712H153.542V200.032L152.582 200.192V206.416L156.63 200.512V200.192L155.67 200.032V199.712H159.35V200.032L158.23 200.192V207.52L159.35 207.68V208H155.67V207.68L156.63 207.52V201.184L152.582 207.104V207.52L153.542 207.68V208H149.862ZM154.662 198.688C153.851 198.688 153.174 198.549 152.63 198.272C152.096 197.984 151.83 197.552 151.83 196.976C151.83 196.709 151.92 196.48 152.102 196.288C152.294 196.096 152.523 196 152.79 196C153.056 196 153.291 196.096 153.494 196.288C153.696 196.48 153.798 196.709 153.798 196.976C153.638 197.061 153.51 197.163 153.414 197.28C153.328 197.387 153.286 197.499 153.286 197.616C153.286 197.819 153.403 197.995 153.638 198.144C153.883 198.283 154.224 198.352 154.662 198.352C155.078 198.352 155.408 198.277 155.654 198.128C155.899 197.979 156.022 197.803 156.022 197.6C156.022 197.355 155.856 197.147 155.526 196.976C155.526 196.709 155.622 196.48 155.814 196.288C156.016 196.096 156.256 196 156.534 196C156.8 196 157.024 196.096 157.206 196.288C157.387 196.48 157.478 196.709 157.478 196.976C157.478 197.552 157.206 197.984 156.662 198.272C156.128 198.549 155.462 198.688 154.662 198.688Z" fill="#B6985A"/>
</svg>
