<svg width="255" height="293" viewBox="0 0 255 293" fill="none" xmlns="http://www.w3.org/2000/svg">
<path d="M89.2593 172V170.4L94.8593 169.6V110.4L89.2593 109.6V108H102.859V169.6L108.459 170.4V172H89.2593Z" fill="#B6985A"/>
<path d="M140.277 173.6C135.637 173.6 131.584 172.347 128.117 169.84C124.651 167.333 121.957 163.573 120.037 158.56C118.117 153.493 117.157 147.307 117.157 140C117.157 132.693 118.117 126.533 120.037 121.52C121.957 116.453 124.651 112.667 128.117 110.16C131.584 107.653 135.637 106.4 140.277 106.4C144.917 106.4 148.971 107.653 152.437 110.16C155.904 112.667 158.597 116.453 160.517 121.52C162.437 126.533 163.397 132.693 163.397 140C163.397 147.307 162.437 153.493 160.517 158.56C158.597 163.573 155.904 167.333 152.437 169.84C148.971 172.347 144.917 173.6 140.277 173.6ZM140.277 171.76C144.277 171.76 147.424 169.813 149.717 165.92C152.011 162.027 153.157 155.947 153.157 147.68V132.24C153.157 124.027 152.011 117.973 149.717 114.08C147.424 110.187 144.277 108.24 140.277 108.24C136.277 108.24 133.131 110.187 130.837 114.08C128.544 117.973 127.397 124.027 127.397 132.24V147.68C127.397 155.893 128.544 161.973 130.837 165.92C133.131 169.813 136.277 171.76 140.277 171.76Z" fill="#B6985A"/>
<path d="M74.5976 208.16C73.8296 208.16 73.1309 207.984 72.5016 207.632C71.8723 207.269 71.3709 206.763 70.9976 206.112C70.6349 205.451 70.4536 204.699 70.4536 203.856C70.4536 202.971 70.6456 202.203 71.0296 201.552C71.4243 200.901 71.9363 200.411 72.5656 200.08C73.1949 199.739 73.8723 199.568 74.5976 199.568C75.2056 199.568 75.7603 199.675 76.2616 199.888C76.7629 200.091 77.1576 200.379 77.4456 200.752C77.7443 201.125 77.8936 201.547 77.8936 202.016C77.8936 202.368 77.8029 202.64 77.6216 202.832C77.4403 203.013 77.2003 203.104 76.9016 203.104C76.6136 203.104 76.3736 203.008 76.1816 202.816C75.9896 202.624 75.8936 202.384 75.8936 202.096C76.0536 201.989 76.1656 201.872 76.2296 201.744C76.2936 201.616 76.3256 201.456 76.3256 201.264C76.3256 200.869 76.1656 200.549 75.8456 200.304C75.5363 200.048 75.1203 199.92 74.5976 199.92C73.8296 199.92 73.2376 200.197 72.8216 200.752C72.4163 201.296 72.2136 202.064 72.2136 203.056V204.656C72.2136 205.605 72.4109 206.368 72.8056 206.944C73.2109 207.52 73.8083 207.808 74.5976 207.808C75.3229 207.808 75.9523 207.605 76.4856 207.2C77.0296 206.784 77.3656 206.24 77.4936 205.568H77.8616C77.7123 206.357 77.3389 206.987 76.7416 207.456C76.1549 207.925 75.4403 208.16 74.5976 208.16Z" fill="#B6985A"/>
<path d="M78.9476 208V207.68L80.0676 207.52V200.192L78.9476 200.032V199.712H88.2276V200.032L87.1076 200.192V207.52L88.2276 207.68V208H84.5476V207.68L85.5076 207.52V200.112H81.6676V207.52L82.6276 207.68V208H78.9476Z" fill="#B6985A"/>
<path d="M93.5682 208.16C92.7789 208.16 92.0642 207.984 91.4242 207.632C90.7842 207.269 90.2776 206.763 89.9042 206.112C89.5309 205.461 89.3442 204.709 89.3442 203.856C89.3442 203.003 89.5256 202.256 89.8882 201.616C90.2616 200.965 90.7576 200.464 91.3762 200.112C92.0056 199.749 92.7042 199.568 93.4722 199.568C94.1442 199.568 94.7469 199.717 95.2802 200.016C95.8136 200.315 96.2296 200.731 96.5282 201.264C96.8269 201.787 96.9816 202.389 96.9922 203.072H91.1042V204.656C91.1042 205.595 91.3122 206.357 91.7282 206.944C92.1549 207.52 92.7682 207.808 93.5682 207.808C94.3042 207.808 94.9549 207.6 95.5202 207.184C96.0856 206.768 96.4322 206.229 96.5602 205.568H96.9282C96.7789 206.357 96.4002 206.987 95.7922 207.456C95.1842 207.925 94.4429 208.16 93.5682 208.16ZM95.2322 202.672C95.2322 201.744 95.0882 201.056 94.8002 200.608C94.5122 200.149 94.0642 199.92 93.4562 199.92C92.7416 199.92 92.1869 200.171 91.7922 200.672C91.3976 201.173 91.1736 201.84 91.1202 202.672H95.2322Z" fill="#B6985A"/>
<path d="M107.049 210.64L105.641 208H98.057V207.68L99.177 207.52V200.192L98.057 200.032V199.712H101.737V200.032L100.777 200.192V207.6H104.521V200.192L103.561 200.032V199.712H107.241V200.032L106.121 200.192V207.6H107.257L107.497 210.64H107.049Z" fill="#B6985A"/>
<path d="M108.041 208V207.68L109.161 207.52V200.192L108.041 200.032V199.712H111.721V200.032L110.761 200.192V206.416L114.809 200.512V200.192L113.849 200.032V199.712H117.529V200.032L116.409 200.192V207.52L117.529 207.68V208H113.849V207.68L114.809 207.52V201.184L110.761 207.104V207.52L111.721 207.68V208H108.041Z" fill="#B6985A"/>
<path d="M121.041 208.16C120.358 208.16 119.798 207.984 119.361 207.632C118.923 207.269 118.705 206.736 118.705 206.032C118.705 205.029 119.126 204.32 119.969 203.904C120.811 203.477 121.787 203.264 122.897 203.264H123.969V202.032C123.969 201.477 123.905 201.051 123.777 200.752C123.659 200.443 123.473 200.229 123.217 200.112C122.961 199.984 122.614 199.92 122.177 199.92C121.675 199.92 121.302 200.021 121.057 200.224C120.811 200.416 120.689 200.677 120.689 201.008C120.689 201.317 120.838 201.52 121.137 201.616C121.137 201.883 121.035 202.117 120.833 202.32C120.63 202.523 120.39 202.624 120.113 202.624C119.814 202.624 119.574 202.544 119.393 202.384C119.211 202.213 119.121 201.957 119.121 201.616C119.121 200.997 119.43 200.501 120.049 200.128C120.667 199.755 121.441 199.568 122.369 199.568C124.502 199.568 125.569 200.496 125.569 202.352V206.928C125.569 207.163 125.617 207.344 125.713 207.472C125.819 207.589 125.969 207.648 126.161 207.648C126.342 207.648 126.486 207.589 126.593 207.472C126.699 207.344 126.753 207.173 126.753 206.96H127.089C127.089 207.333 126.966 207.627 126.721 207.84C126.486 208.053 126.155 208.16 125.729 208.16C125.238 208.16 124.822 208.021 124.481 207.744C124.15 207.456 123.979 207.013 123.969 206.416C123.713 206.96 123.318 207.387 122.785 207.696C122.262 208.005 121.681 208.16 121.041 208.16ZM121.921 207.456C122.209 207.456 122.502 207.371 122.801 207.2C123.11 207.029 123.371 206.784 123.585 206.464C123.798 206.133 123.926 205.739 123.969 205.28V203.616H122.897C122.022 203.616 121.366 203.813 120.929 204.208C120.502 204.592 120.289 205.136 120.289 205.84C120.289 206.427 120.427 206.843 120.705 207.088C120.982 207.333 121.387 207.456 121.921 207.456Z" fill="#B6985A"/>
<path d="M128.487 208.16C128.114 208.16 127.82 208.069 127.607 207.888C127.394 207.707 127.287 207.44 127.287 207.088C127.287 206.789 127.378 206.555 127.559 206.384C127.74 206.213 127.959 206.128 128.215 206.128C128.386 206.128 128.53 206.165 128.647 206.24C128.764 206.304 128.85 206.373 128.903 206.448C128.967 206.523 129.004 206.571 129.015 206.592C128.876 206.72 128.807 206.859 128.807 207.008C128.807 207.179 128.914 207.264 129.127 207.264C129.852 207.264 130.295 205.717 130.455 202.624L130.551 200.72L129.095 200.032V199.712H136.279V200.032L135.159 200.192V207.504L136.311 207.664V208H132.567V207.664L133.559 207.504V200.112H130.967L130.839 202.64C130.775 203.931 130.652 204.976 130.471 205.776C130.3 206.576 130.055 207.173 129.735 207.568C129.415 207.963 128.999 208.16 128.487 208.16Z" fill="#B6985A"/>
<path d="M137.182 208V207.68L138.302 207.52V200.192L137.182 200.032V199.712H140.862V200.032L139.902 200.192V206.416L143.95 200.512V200.192L142.99 200.032V199.712H146.67V200.032L145.55 200.192V207.52L146.67 207.68V208H142.99V207.68L143.95 207.52V201.184L139.902 207.104V207.52L140.862 207.68V208H137.182Z" fill="#B6985A"/>
<path d="M151.941 208.16C151.173 208.16 150.475 207.984 149.845 207.632C149.216 207.269 148.715 206.763 148.341 206.112C147.979 205.451 147.797 204.699 147.797 203.856C147.797 202.971 147.989 202.203 148.373 201.552C148.768 200.901 149.28 200.411 149.909 200.08C150.539 199.739 151.216 199.568 151.941 199.568C152.549 199.568 153.104 199.675 153.605 199.888C154.107 200.091 154.501 200.379 154.789 200.752C155.088 201.125 155.237 201.547 155.237 202.016C155.237 202.368 155.147 202.64 154.965 202.832C154.784 203.013 154.544 203.104 154.245 203.104C153.957 203.104 153.717 203.008 153.525 202.816C153.333 202.624 153.237 202.384 153.237 202.096C153.397 201.989 153.509 201.872 153.573 201.744C153.637 201.616 153.669 201.456 153.669 201.264C153.669 200.869 153.509 200.549 153.189 200.304C152.88 200.048 152.464 199.92 151.941 199.92C151.173 199.92 150.581 200.197 150.165 200.752C149.76 201.296 149.557 202.064 149.557 203.056V204.656C149.557 205.605 149.755 206.368 150.149 206.944C150.555 207.52 151.152 207.808 151.941 207.808C152.667 207.808 153.296 207.605 153.829 207.2C154.373 206.784 154.709 206.24 154.837 205.568H155.205C155.056 206.357 154.683 206.987 154.085 207.456C153.499 207.925 152.784 208.16 151.941 208.16Z" fill="#B6985A"/>
<path d="M158.131 208V207.68L159.411 207.52V200.112H158.035L156.643 202.752H156.195L156.435 199.712H163.987L164.227 202.752H163.779L162.371 200.112H161.011V207.52L162.291 207.68V208H158.131Z" fill="#B6985A"/>
<path d="M169.394 208.16C168.626 208.16 167.928 207.984 167.298 207.632C166.669 207.269 166.168 206.763 165.794 206.112C165.432 205.451 165.25 204.699 165.25 203.856C165.25 203.013 165.432 202.267 165.794 201.616C166.168 200.965 166.669 200.464 167.298 200.112C167.928 199.749 168.626 199.568 169.394 199.568C170.162 199.568 170.861 199.749 171.49 200.112C172.12 200.464 172.616 200.965 172.978 201.616C173.352 202.267 173.538 203.013 173.538 203.856C173.538 204.699 173.352 205.451 172.978 206.112C172.616 206.763 172.12 207.269 171.49 207.632C170.861 207.984 170.162 208.16 169.394 208.16ZM169.394 207.808C170.184 207.808 170.776 207.52 171.17 206.944C171.576 206.368 171.778 205.605 171.778 204.656V203.056C171.778 202.107 171.576 201.349 171.17 200.784C170.776 200.208 170.184 199.92 169.394 199.92C168.605 199.92 168.008 200.208 167.602 200.784C167.208 201.349 167.01 202.107 167.01 203.056V204.656C167.01 205.605 167.208 206.368 167.602 206.944C168.008 207.52 168.605 207.808 169.394 207.808Z" fill="#B6985A"/>
<path d="M174.651 207.68L175.771 207.52V200.192L174.651 200.032V199.712H179.035C180.133 199.712 180.917 199.867 181.387 200.176C181.856 200.475 182.091 200.965 182.091 201.648C182.091 202.64 181.461 203.275 180.203 203.552V203.6C181.824 203.824 182.635 204.544 182.635 205.76C182.635 206.507 182.363 207.067 181.819 207.44C181.275 207.813 180.517 208 179.547 208H174.651V207.68ZM178.651 203.456C179.205 203.456 179.627 203.312 179.915 203.024C180.213 202.736 180.363 202.304 180.363 201.728V201.664C180.363 201.141 180.213 200.752 179.915 200.496C179.616 200.24 179.163 200.112 178.555 200.112H177.371V203.456H178.651ZM179.067 207.6C179.653 207.6 180.107 207.445 180.427 207.136C180.747 206.827 180.907 206.373 180.907 205.776V205.664C180.907 205.056 180.747 204.603 180.427 204.304C180.117 203.995 179.664 203.84 179.067 203.84H177.371V207.6H179.067Z" fill="#B6985A"/>
<path fill-rule="evenodd" clip-rule="evenodd" d="M127.5 1.1547L1.62744 73.8274V219.173L127.5 291.845L253.373 219.173V73.8274L127.5 1.1547ZM254.373 73.25L127.5 0L0.627441 73.25V219.75L127.5 293L254.373 219.75V73.25Z" fill="#B6985A"/>
</svg>
