<svg width="100" height="209" viewBox="0 0 100 209" fill="none" xmlns="http://www.w3.org/2000/svg">
<g clip-path="url(#clip0)">
<rect width="1440" height="7100" transform="translate(0 -1622)" fill="white"/>
<rect y="-204" width="1440" height="825" fill="white"/>
<path d="M3.02303 9.57408C1.572 11.026 -1.00761 11.026 -2.45864 9.57408C-3.90966 8.12214 -3.90966 5.5409 -2.45864 4.08896C-1.00761 2.63701 1.572 2.63701 3.02303 4.08896C4.47405 5.70223 4.47405 8.12214 3.02303 9.57408Z" fill="#B6985A"/>
<path d="M13.8252 24.4155C15.9622 24.4155 17.6946 22.6821 17.6946 20.5438C17.6946 18.4055 15.9622 16.6721 13.8252 16.6721C11.6882 16.6721 9.95578 18.4055 9.95578 20.5438C9.95578 22.6821 11.6882 24.4155 13.8252 24.4155Z" fill="#B6985A"/>
<path d="M2.86167 37.1602C1.41063 38.6121 -1.16898 38.6121 -2.62001 37.1602C-4.07104 35.7083 -4.07104 33.1272 -2.62001 31.6753C-1.16898 30.2235 1.41063 30.2235 2.86167 31.6753C4.47393 33.1272 4.47393 35.547 2.86167 37.1602Z" fill="#B6985A"/>
<path d="M27.5293 38.128C29.6663 38.128 31.3987 36.3946 31.3987 34.2564C31.3987 32.1182 29.6663 30.3848 27.5293 30.3848C25.3923 30.3848 23.6599 32.1182 23.6599 34.2564C23.6599 36.3946 25.3923 38.128 27.5293 38.128Z" fill="#B6985A"/>
<path d="M13.8252 51.8406C15.9622 51.8406 17.6946 50.1072 17.6946 47.9689C17.6946 45.8306 15.9622 44.0972 13.8252 44.0972C11.6882 44.0972 9.95578 45.8306 9.95578 47.9689C9.95578 50.1072 11.6882 51.8406 13.8252 51.8406Z" fill="#B6985A"/>
<path d="M0.120937 65.7143C2.25796 65.7143 3.99036 63.9809 3.99036 61.8426C3.99036 59.7044 2.25796 57.9709 0.120937 57.9709C-2.01608 57.9709 -3.74847 59.7044 -3.74847 61.8426C-3.74847 63.9809 -2.01608 65.7143 0.120937 65.7143Z" fill="#B6985A"/>
<path d="M43.9742 50.7113C42.5232 52.1632 39.9436 52.1632 38.4926 50.7113C37.0415 49.2594 37.0415 46.6782 38.4926 45.2263C39.9436 43.7743 42.5232 43.7743 43.9742 45.2263C45.5865 46.6782 45.5865 49.2594 43.9742 50.7113Z" fill="#B6985A"/>
<path d="M30.27 64.585C28.819 66.0369 26.2395 66.0369 24.7884 64.585C23.3374 63.1331 23.3374 60.5519 24.7884 59.1C26.2395 57.6481 28.819 57.6481 30.27 59.1C31.8823 60.5519 31.8823 62.9718 30.27 64.585Z" fill="#B6985A"/>
<path d="M13.8252 79.4267C15.9622 79.4267 17.6946 77.6933 17.6946 75.555C17.6946 73.4168 15.9622 71.6833 13.8252 71.6833C11.6882 71.6833 9.95578 73.4168 9.95578 75.555C9.95578 77.6933 11.6882 79.4267 13.8252 79.4267Z" fill="#B6985A"/>
<path d="M2.70042 92.0099C1.24941 93.4618 -1.33015 93.4618 -2.78116 92.0099C-4.23217 90.558 -4.23217 87.9769 -2.78116 86.525C-1.33015 85.0731 1.24941 85.0731 2.70042 86.525C4.31265 87.9769 4.31265 90.558 2.70042 92.0099Z" fill="#B6985A"/>
<path d="M57.6783 64.4237C56.2273 65.8756 53.6477 65.8756 52.1967 64.4237C50.7456 62.9718 50.7456 60.3907 52.1967 58.9388C53.6477 57.4869 56.2273 57.4869 57.6783 58.9388C59.2906 60.3907 59.2906 62.9718 57.6783 64.4237Z" fill="#B6985A"/>
<path d="M43.9742 78.1363C42.5232 79.5882 39.9436 79.5882 38.4926 78.1363C37.0415 76.6844 37.0415 74.1032 38.4926 72.6513C39.9436 71.1994 42.5232 71.1994 43.9742 72.6513C45.5865 74.2645 45.5865 76.6844 43.9742 78.1363Z" fill="#B6985A"/>
<path d="M30.2701 92.0099C28.8191 93.4618 26.2395 93.4618 24.7885 92.0099C23.3374 90.558 23.3374 87.9769 24.7885 86.525C26.2395 85.0731 28.8191 85.0731 30.2701 86.525C31.7212 87.9769 31.7212 90.3967 30.2701 92.0099Z" fill="#B6985A"/>
<path d="M16.4046 105.722C14.9536 107.174 12.374 107.174 10.923 105.722C9.47193 104.27 9.47193 101.689 10.923 100.237C12.374 98.7855 14.9536 98.7855 16.4046 100.237C18.0169 101.689 18.0169 104.27 16.4046 105.722Z" fill="#B6985A"/>
<path d="M2.70042 119.435C1.24941 120.887 -1.33015 120.887 -2.78116 119.435C-4.23217 117.983 -4.23217 115.402 -2.78116 113.95C-1.33015 112.498 1.24941 112.498 2.70042 113.95C4.31265 115.563 4.31265 117.983 2.70042 119.435Z" fill="#B6985A"/>
<path d="M68.6418 79.2656C70.7788 79.2656 72.5112 77.5321 72.5112 75.3938C72.5112 73.2554 70.7788 71.522 68.6418 71.522C66.5047 71.522 64.7723 73.2554 64.7723 75.3938C64.7723 77.5321 66.5047 79.2656 68.6418 79.2656Z" fill="#B6985A"/>
<path d="M54.9377 92.978C57.0747 92.978 58.8071 91.2445 58.8071 89.1062C58.8071 86.9678 57.0747 85.2344 54.9377 85.2344C52.8006 85.2344 51.0682 86.9678 51.0682 89.1062C51.0682 91.2445 52.8006 92.978 54.9377 92.978Z" fill="#B6985A"/>
<path d="M41.2336 106.852C43.3706 106.852 45.103 105.118 45.103 102.98C45.103 100.842 43.3706 99.1083 41.2336 99.1083C39.0965 99.1083 37.3641 100.842 37.3641 102.98C37.3641 105.118 39.0965 106.852 41.2336 106.852Z" fill="#B6985A"/>
<path d="M27.368 120.564C29.5051 120.564 31.2375 118.831 31.2375 116.692C31.2375 114.554 29.5051 112.821 27.368 112.821C25.231 112.821 23.4986 114.554 23.4986 116.692C23.4986 118.831 25.231 120.564 27.368 120.564Z" fill="#B6985A"/>
<path d="M13.6638 134.277C15.8008 134.277 17.5332 132.543 17.5332 130.405C17.5332 128.267 15.8008 126.533 13.6638 126.533C11.5268 126.533 9.79437 128.267 9.79437 130.405C9.79437 132.543 11.5268 134.277 13.6638 134.277Z" fill="#B6985A"/>
<path d="M-0.0401921 148.15C2.09683 148.15 3.82922 146.417 3.82922 144.279C3.82922 142.14 2.09683 140.407 -0.0401921 140.407C-2.17721 140.407 -3.90961 142.14 -3.90961 144.279C-3.90961 146.417 -2.17721 148.15 -0.0401921 148.15Z" fill="#B6985A"/>
<path d="M82.3459 92.978C84.4829 92.978 86.2153 91.2445 86.2153 89.1062C86.2153 86.9678 84.4829 85.2344 82.3459 85.2344C80.2088 85.2344 78.4764 86.9678 78.4764 89.1062C78.4764 91.2445 80.2088 92.978 82.3459 92.978Z" fill="#B6985A"/>
<path d="M71.3825 105.561C69.9314 107.013 67.3518 107.013 65.9008 105.561C64.4497 104.109 64.4497 101.528 65.9008 100.076C67.3518 98.6241 69.9314 98.6241 71.3825 100.076C72.9947 101.689 72.9947 104.109 71.3825 105.561Z" fill="#B6985A"/>
<path d="M57.6783 119.435C56.2273 120.887 53.6477 120.887 52.1967 119.435C50.7456 117.983 50.7456 115.402 52.1967 113.95C53.6477 112.498 56.2273 112.498 57.6783 113.95C59.1294 115.402 59.1294 117.822 57.6783 119.435Z" fill="#B6985A"/>
<path d="M43.8129 133.147C42.3618 134.599 39.7822 134.599 38.3312 133.147C36.8802 131.695 36.8802 129.114 38.3312 127.662C39.7822 126.21 42.3618 126.21 43.8129 127.662C45.4251 129.114 45.4251 131.695 43.8129 133.147Z" fill="#B6985A"/>
<path d="M30.1086 146.86C28.6576 148.312 26.078 148.312 24.6269 146.86C23.1759 145.408 23.1759 142.827 24.6269 141.375C26.078 139.923 28.6576 139.923 30.1086 141.375C31.7209 142.988 31.7209 145.408 30.1086 146.86Z" fill="#B6985A"/>
<path d="M13.6638 161.863C15.8008 161.863 17.5332 160.129 17.5332 157.991C17.5332 155.853 15.8008 154.119 13.6638 154.119C11.5268 154.119 9.79437 155.853 9.79437 157.991C9.79437 160.129 11.5268 161.863 13.6638 161.863Z" fill="#B6985A"/>
<path d="M2.53913 174.446C1.08809 175.898 -1.49152 175.898 -2.94255 174.446C-4.39358 172.994 -4.39358 170.413 -2.94255 168.961C-1.49152 167.509 1.08809 167.509 2.53913 168.961C4.15139 170.413 4.15139 172.994 2.53913 174.446Z" fill="#B6985A"/>
<path d="M98.7908 105.561C97.3398 107.013 94.7602 107.013 93.3091 105.561C91.8581 104.109 91.8581 101.528 93.3091 100.076C94.7602 98.6241 97.3398 98.6241 98.7908 100.076C100.403 101.528 100.403 104.109 98.7908 105.561Z" fill="#B6985A"/>
<path d="M82.3459 120.403C84.4829 120.403 86.2153 118.669 86.2153 116.531C86.2153 114.393 84.4829 112.659 82.3459 112.659C80.2088 112.659 78.4764 114.393 78.4764 116.531C78.4764 118.669 80.2088 120.403 82.3459 120.403Z" fill="#B6985A"/>
<path d="M71.3825 133.147C69.9315 134.599 67.3518 134.599 65.9008 133.147C64.4497 131.695 64.4497 129.114 65.9008 127.662C67.3518 126.21 69.9315 126.21 71.3825 127.662C72.8336 129.114 72.8336 131.534 71.3825 133.147Z" fill="#B6985A"/>
<path d="M57.517 146.86C56.066 148.312 53.4864 148.312 52.0354 146.86C50.5844 145.408 50.5844 142.827 52.0354 141.375C53.4864 139.923 56.066 139.923 57.517 141.375C59.1292 142.827 59.1292 145.408 57.517 146.86Z" fill="#B6985A"/>
<path d="M41.0721 161.701C43.2091 161.701 44.9414 159.968 44.9414 157.83C44.9414 155.691 43.2091 153.958 41.0721 153.958C38.9351 153.958 37.2027 155.691 37.2027 157.83C37.2027 159.968 38.9351 161.701 41.0721 161.701Z" fill="#B6985A"/>
<path d="M30.1087 174.446C28.6577 175.898 26.078 175.898 24.627 174.446C23.1759 172.994 23.1759 170.413 24.627 168.961C26.078 167.509 28.6577 167.509 30.1087 168.961C31.5598 170.413 31.5598 172.832 30.1087 174.446Z" fill="#B6985A"/>
<path d="M16.2434 188.158C14.7924 189.61 12.2127 189.61 10.7617 188.158C9.31067 186.706 9.31067 184.125 10.7617 182.673C12.2127 181.221 14.7924 181.221 16.2434 182.673C17.8556 184.125 17.8556 186.706 16.2434 188.158Z" fill="#B6985A"/>
<path d="M-0.201569 203C1.93545 203 3.66785 201.266 3.66785 199.128C3.66785 196.99 1.93545 195.256 -0.201569 195.256C-2.33859 195.256 -4.07098 196.99 -4.07098 199.128C-4.07098 201.266 -2.33859 203 -0.201569 203Z" fill="#B6985A"/>
</g>
<defs>
<clipPath id="clip0">
<rect width="1440" height="7100" fill="white" transform="translate(0 -1622)"/>
</clipPath>
</defs>
</svg>
