<svg width="30" height="29" viewBox="0 0 30 29" fill="none" xmlns="http://www.w3.org/2000/svg">
<path d="M6.6372 0.108868L4.72034 0.00350129C4.11825 -0.0296244 3.52768 0.173247 3.07259 0.571879C2.1433 1.38561 0.657394 2.9588 0.201007 5.00885C-0.479583 8.06558 0.572206 11.8086 3.29438 15.5516C6.01656 19.2946 11.0895 25.2834 20.0601 27.8412C22.9508 28.6654 25.2247 28.1098 26.9792 26.9781C28.3688 26.0818 29.3266 24.6432 29.6718 23.0169L29.9779 21.5754C30.0752 21.1173 29.8445 20.6524 29.4224 20.4563L22.9441 17.4452C22.5235 17.2498 22.0248 17.3733 21.742 17.743L19.1987 21.0675C19.0066 21.3187 18.6777 21.4182 18.3808 21.313C16.6391 20.6958 10.805 18.232 7.6038 12.0141C7.46497 11.7444 7.49949 11.4171 7.69641 11.1871L10.127 8.35174C10.3753 8.06221 10.4381 7.65516 10.2888 7.30332L7.49633 0.715423C7.34767 0.364702 7.01452 0.129642 6.6372 0.108868Z" fill="white"/>
</svg>
