<svg width="34" height="28" viewBox="0 0 34 28" fill="none" xmlns="http://www.w3.org/2000/svg">
<path d="M31.818 0.109304L0.722244 11.9546C-0.284953 12.3383 -0.223935 13.7511 0.812851 14.0504L8.71461 16.3313L11.6636 25.4782C11.9716 26.4337 13.2102 26.7233 13.9272 26.0077L18.0126 21.93L26.0286 27.6816C27.0095 28.3855 28.4066 27.8626 28.6557 26.6983L33.9647 1.88641C34.2247 0.671053 33.0015 -0.34153 31.818 0.109304ZM27.9194 5.61567L13.4756 18.1012C13.3316 18.2257 13.24 18.3979 13.2186 18.5847L12.6625 23.417C12.6443 23.5746 12.4187 23.5954 12.3706 23.444L10.0826 16.2373C9.97782 15.9074 10.1144 15.5499 10.4147 15.3679L27.4714 5.027C27.8636 4.78901 28.2652 5.31685 27.9194 5.61567Z" fill="white"/>
</svg>
