<svg width="33" height="33" viewBox="0 0 33 33" fill="none" xmlns="http://www.w3.org/2000/svg">
<path d="M0 32.2078L2.25321 24.2051C0.804264 21.7436 0.0413837 18.9429 0.0413837 16.0658C0.0413837 7.20709 7.24847 0 16.1072 0C24.9659 0 32.1729 7.20709 32.1729 16.0658C32.1729 24.9245 24.9659 32.1316 16.1072 32.1316C13.3469 32.1316 10.644 31.425 8.25289 30.0834L0 32.2078ZM8.6748 27.1606L9.16657 27.4608C11.2513 28.7336 13.6514 29.4063 16.1072 29.4063C23.4631 29.4063 29.4476 23.4218 29.4476 16.0658C29.4476 8.70983 23.4631 2.72529 16.1072 2.72529C8.75121 2.72529 2.76668 8.70983 2.76668 16.0658C2.76668 18.6289 3.49514 21.1179 4.87312 23.2637L5.2043 23.7794L3.90676 28.388L8.6748 27.1606Z" fill="white"/>
<path d="M11.594 8.58826L10.5515 8.53143C10.2241 8.51356 9.90288 8.62298 9.65539 8.83797C9.14999 9.27685 8.3419 10.1253 8.09369 11.231C7.72356 12.8796 8.29557 14.8983 9.77601 16.9171C11.2564 18.9358 14.0153 22.1658 18.8939 23.5453C20.466 23.9898 21.7027 23.6901 22.6568 23.0797C23.4126 22.5964 23.9335 21.8205 24.1212 20.9433L24.2877 20.1659C24.3406 19.9188 24.2151 19.6681 23.9856 19.5623L20.4624 17.9383C20.2337 17.833 19.9624 17.8996 19.8086 18.0989L18.4255 19.892C18.321 20.0274 18.1421 20.0811 17.9806 20.0244C17.0335 19.6915 13.8606 18.3627 12.1197 15.0091C12.0442 14.8637 12.0629 14.6872 12.17 14.5631L13.4919 13.0339C13.6269 12.8778 13.6611 12.6582 13.5799 12.4685L12.0612 8.91539C11.9804 8.72624 11.7992 8.59946 11.594 8.58826Z" fill="white"/>
</svg>
