<svg width="104" height="122" viewBox="0 0 104 122" fill="none" xmlns="http://www.w3.org/2000/svg">
<path fill-rule="evenodd" clip-rule="evenodd" d="M52.0001 3.1547L1.03857 32.5774V91.4226L52.0001 120.845L102.962 91.4226V32.5774L52.0001 3.1547ZM103.962 32L52.0001 2L0.0385742 32V92L52.0001 122L103.962 92V32Z" fill="#B6985A"/>
<path d="M78.8044 74.8696H77.6088V68.8913C77.6088 63.0654 75.5682 57.3879 71.8626 52.9051C68.4163 48.7356 63.693 45.7765 58.4784 44.4998V43.6232C58.4784 41.074 56.4044 39 53.8551 39H51.1451C48.5959 39 46.5219 41.074 46.5219 43.6232V44.4998C41.3072 45.7765 36.5839 48.7356 33.1376 52.9051C29.4321 57.3879 27.3914 63.0655 27.3914 68.8913V74.8696H26.1956C25.5354 74.8696 25 75.405 25 76.0652V80.8478C25 81.4256 25.4133 81.9209 25.9817 82.0242L40.0036 84.5735C44.1501 85.3275 48.3243 85.7043 52.5 85.7043C56.6746 85.7042 60.8509 85.3274 64.9964 84.5735L79.0183 82.0242C79.5869 81.9208 80 81.4256 80 80.8478V76.0652C80 75.405 79.4646 74.8696 78.8044 74.8696ZM77.6087 79.8501L64.5685 82.221C56.5604 83.6773 48.4397 83.6773 40.4316 82.221L27.3913 79.8501V77.2609H28.5869H33.3696C34.0298 77.2609 34.5652 76.7255 34.5652 76.0653C34.5652 75.4051 34.0298 74.8697 33.3696 74.8697H29.7826V68.8914C29.7826 58.1293 37.4254 48.7666 47.9552 46.629C48.5125 46.5159 48.9131 46.0259 48.9131 45.4572V43.6232C48.9131 42.3925 49.9144 41.3913 51.145 41.3913H53.855C55.0858 41.3913 56.0869 42.3926 56.0869 43.6232V45.4571V56.8153C56.0869 57.5405 55.4969 58.1304 54.7718 58.1304H50.2282C49.503 58.1304 48.9131 57.5404 48.9131 56.8153V52.7851C48.9131 52.1249 48.3777 51.5895 47.7175 51.5895C47.0573 51.5895 46.5219 52.1249 46.5219 52.7851V56.8153C46.5219 58.8591 48.1845 60.5218 50.2283 60.5218H54.7719C56.8157 60.5218 58.4784 58.8591 58.4784 56.8153V46.9692C68.2613 49.6306 75.2175 58.624 75.2175 68.8913V74.8696H40.5435C39.8833 74.8696 39.3479 75.405 39.3479 76.0652C39.3479 76.7254 39.8833 77.2608 40.5435 77.2608H76.4131H77.6087V79.8501Z" fill="#B6985A"/>
<path d="M48.5633 48.353C48.341 48.1306 48.0325 48.0027 47.7181 48.0027C47.4036 48.0027 47.0951 48.1305 46.8728 48.353C46.6504 48.5755 46.5225 48.8839 46.5225 49.1983C46.5225 49.5127 46.6503 49.8212 46.8728 50.0435C47.0951 50.266 47.4036 50.3939 47.7181 50.3939C48.0325 50.3939 48.341 50.266 48.5633 50.0435C48.7856 49.8212 48.9137 49.5127 48.9137 49.1983C48.9137 48.8839 48.7858 48.5754 48.5633 48.353Z" fill="#B6985A"/>
<path d="M37.8015 75.2204C37.5793 74.9969 37.2708 74.8701 36.9563 74.8701C36.6419 74.8701 36.3334 74.9969 36.111 75.2204C35.8887 75.4428 35.7607 75.7501 35.7607 76.0657C35.7607 76.3801 35.8886 76.6887 36.111 76.9109C36.3334 77.1333 36.6419 77.2613 36.9563 77.2613C37.2708 77.2613 37.5793 77.1334 37.8015 76.9109C38.0239 76.6875 38.152 76.3801 38.152 76.0657C38.152 75.7513 38.0241 75.4428 37.8015 75.2204Z" fill="#B6985A"/>
</svg>
