<svg width="104" height="122" viewBox="0 0 104 122" fill="none" xmlns="http://www.w3.org/2000/svg">
<path fill-rule="evenodd" clip-rule="evenodd" d="M52.0001 3.1547L1.03857 32.5774V91.4226L52.0001 120.845L102.962 91.4226V32.5774L52.0001 3.1547ZM103.962 32L52.0001 2L0.0385742 32V92L52.0001 122L103.962 92V32Z" fill="#B6985A"/>
<path d="M55.75 74.5977C55.1463 74.5977 54.6562 75.079 54.6562 75.6719C54.6562 76.2648 55.1463 76.7461 55.75 76.7461C56.3537 76.7461 56.8438 76.2648 56.8438 75.6719C56.8438 75.079 56.3537 74.5977 55.75 74.5977Z" fill="#B6985A"/>
<path d="M67.7812 49.0375V45.0566C67.7812 42.9783 66.0697 41.2969 63.9531 41.2969C63.2922 41.2969 62.6701 41.4622 62.1271 41.753C61.6293 40.2436 60.1848 39.1484 58.4844 39.1484C57.8234 39.1484 57.2014 39.3138 56.6583 39.6046C56.1606 38.0952 54.7161 37 53.0156 37C51.9454 37 50.9768 37.4343 50.2812 38.1321C49.5857 37.4343 48.6171 37 47.5469 37C45.4359 37 43.7188 38.6864 43.7188 40.7598V45.9085C42.1691 46.36 40.8075 47.2789 39.8141 48.5604C36.7158 48.9314 34.5043 49.2964 33.1107 49.6682C31.4307 47.5122 28.3986 46.9445 26.0325 48.2843L19.5422 52.0072C19.2064 52.1998 19 52.5531 19 52.9349C19 53.3168 19.2064 53.6697 19.5417 53.8627L26.0376 57.5898C28.2443 58.8394 31.1231 58.4433 32.8718 56.4841C34.2087 56.8592 36.3223 57.223 39.3848 57.6061C39.6971 58.105 40.0679 58.5666 40.4922 58.9829L44.3049 62.7275C45.3376 63.7418 45.9062 65.0904 45.9062 66.5251V69.2266H45.3594C43.2484 69.2266 41.5312 70.913 41.5312 72.9863C41.5312 74.4831 42.4268 75.778 43.7188 76.3827V85.3398C43.7188 85.9332 44.2084 86.4141 44.8125 86.4141H66.6875C67.2916 86.4141 67.7812 85.9332 67.7812 85.3398V76.3827C69.0732 75.778 69.9688 74.4831 69.9688 72.9863C69.9688 70.913 68.2516 69.2266 66.1406 69.2266H65.5938V66.2574C65.5938 64.9276 65.8984 63.5882 66.4743 62.3847C67.3536 60.5493 67.7808 58.8708 67.7812 57.2545C72.6356 56.2801 75 54.9227 75 53.1133C75 50.7038 70.3178 49.583 67.7812 49.0375ZM63.9531 43.4453C64.8602 43.4453 65.5938 44.1654 65.5938 45.0566V49.3535C65.5938 50.2544 64.8448 50.9648 63.9531 50.9648C63.0486 50.9648 62.3125 50.2418 62.3125 49.3535V45.0566C62.3125 44.1683 63.0486 43.4453 63.9531 43.4453ZM58.4844 41.2969C59.3889 41.2969 60.125 42.0199 60.125 42.9082V48.2793C60.125 49.1676 59.3889 49.8906 58.4844 49.8906C57.5812 49.8906 56.8438 49.1739 56.8438 48.2793V42.9082C56.8438 42.0199 57.5799 41.2969 58.4844 41.2969ZM53.0156 39.1484C53.9201 39.1484 54.6562 39.8714 54.6562 40.7598V46.0482C54.0615 45.7557 53.3916 45.5938 52.6875 45.5938H51.375V40.7598C51.375 39.8714 52.1111 39.1484 53.0156 39.1484ZM45.9062 40.7598C45.9062 39.8714 46.6424 39.1484 47.5469 39.1484C48.4514 39.1484 49.1875 39.8714 49.1875 40.7598V45.5938H45.9062V40.7598ZM38.4384 55.3158C36.5038 55.0536 35.0149 54.7976 33.9839 54.5513C34.1506 54.0318 34.2369 53.4876 34.2369 52.9349C34.2369 52.4985 34.1822 52.063 34.0758 51.6408C35.1157 51.3933 36.6269 51.1386 38.5956 50.8792C38.3679 51.598 38.25 52.3496 38.25 53.1133V53.6663C38.25 54.2206 38.3145 54.7745 38.4384 55.3158ZM27.136 55.7317L22.262 52.9349L27.1305 50.1424C29.3005 48.9138 32.0494 50.4428 32.0494 52.9349C32.0494 55.391 29.3248 56.9717 27.136 55.7317ZM45.8516 61.2085L42.0388 57.4639C41.6355 57.0677 41.2997 56.615 41.0403 56.1182C40.646 55.3616 40.4375 54.514 40.4375 53.6668V53.1133C40.4375 50.1827 42.8476 47.7422 45.9062 47.7422H52.6875C53.8714 47.7422 54.875 48.6922 54.875 49.8906C54.875 51.0752 53.8936 52.0391 52.6875 52.0391H46.1271C45.5358 52.0391 45.0513 52.5006 45.0338 53.0814C45.0163 53.6617 45.4717 54.151 46.0622 54.1854C50.92 54.4707 53.3578 58.8184 52.174 62.5496C51.9941 63.1161 52.3158 63.7183 52.8926 63.8949C53.4689 64.0716 54.0825 63.7552 54.2619 63.1891C54.7532 61.6412 54.7772 59.9895 54.3802 58.4802C58.369 58.4449 62.2689 58.152 65.5818 57.6418C65.5173 58.823 65.1605 60.0798 64.4944 61.4704C63.7827 62.9587 63.4062 64.6141 63.4062 66.2574V69.2266H48.0938V66.5251C48.0938 64.5164 47.2974 62.6285 45.8516 61.2085ZM67.7812 72.9863C67.7812 73.8747 67.0451 74.5977 66.1406 74.5977H60.125C59.5209 74.5977 59.0312 75.0785 59.0312 75.6719C59.0312 76.2652 59.5209 76.7461 60.125 76.7461H65.5938V84.2656H45.9062V76.7461H51.375C51.9791 76.7461 52.4688 76.2652 52.4688 75.6719C52.4688 75.0785 51.9791 74.5977 51.375 74.5977H45.3594C44.4549 74.5977 43.7188 73.8747 43.7188 72.9863C43.7188 72.098 44.4549 71.375 45.3594 71.375H66.1406C67.0451 71.375 67.7812 72.098 67.7812 72.9863ZM66.4863 55.3129C62.8303 55.9725 58.2404 56.3359 53.5625 56.3359C53.5356 56.3359 53.5082 56.3355 53.4813 56.3355C53.002 55.5198 52.3978 54.7959 51.6954 54.1875H52.6875C54.4798 54.1875 56.0226 53.1234 56.6981 51.6052C57.2355 51.8834 57.8448 52.0391 58.4844 52.0391C59.3115 52.0391 60.078 51.7789 60.7048 51.3391C61.3815 52.4033 62.5842 53.1133 63.9531 53.1133C65.3823 53.1133 66.6661 52.3252 67.3215 51.1377C71.13 51.9547 72.4989 52.7919 72.783 53.1364C72.5237 53.506 71.0099 54.498 66.4863 55.3129Z" fill="#B6985A"/>
</svg>
