<svg width="104" height="122" viewBox="0 0 104 122" fill="none" xmlns="http://www.w3.org/2000/svg">
<path fill-rule="evenodd" clip-rule="evenodd" d="M52.0001 3.1547L1.03857 32.5774V91.4226L52.0001 120.845L102.962 91.4226V32.5774L52.0001 3.1547ZM103.962 32L52.0001 2L0.0385742 32V92L52.0001 122L103.962 92V32Z" fill="#B6985A"/>
<path d="M78.9062 50.8255H57.3568L57.2389 50.5498C57.4542 49.9884 57.5726 49.3812 57.5726 48.7472C57.5726 47.2433 56.9099 45.8887 55.8563 44.9505V40.513C55.8563 39.5756 55.485 38.6936 54.8091 38.0285C54.1341 37.3651 53.2356 37 52.2794 37C50.3081 37 48.7038 38.5761 48.7038 40.513V45.0873C47.7361 46.018 47.1341 47.3146 47.1341 48.7472C47.1341 49.3951 47.2584 50.0148 47.4827 50.5859L47.3798 50.8255H31.6204V41.3472C31.6204 40.7539 31.1307 40.273 30.5266 40.273C26.9279 40.273 24 43.1251 24 46.6302V80.7635C24 84.2614 26.9279 87.1073 30.5266 87.1073H78.9062C79.5104 87.1073 80 86.6264 80 86.0331V51.8997C80 51.3064 79.5104 50.8255 78.9062 50.8255ZM50.5991 46.3209C51.6189 45.6076 53.0203 45.5925 54.0555 46.2844C54.8574 46.8207 55.3851 47.7246 55.3851 48.7472C55.3851 49.2994 55.2308 49.8168 54.963 50.2607C54.9292 50.3165 54.8937 50.3715 54.8561 50.4252C54.4477 51.011 53.8325 51.447 53.1138 51.6299C52.0265 51.906 50.849 51.554 50.0988 50.7357C49.616 50.2079 49.3216 49.5109 49.3216 48.7472C49.3216 47.7779 49.7954 46.9155 50.5273 46.3713C50.5512 46.3541 50.5751 46.3377 50.5991 46.3209ZM61.0102 71.8903L57.7426 64.2319C58.6411 63.8127 59.429 63.3179 60.1091 62.8056L63.5532 70.8559L61.0102 71.8903ZM45.0667 68.6227L42.5438 67.575L44.5582 62.8958C45.2431 63.4002 46.0331 63.8836 46.9316 64.2906L45.9912 66.4751L45.0667 68.6227ZM44.2147 70.6016L43.097 73.197L42.5245 69.8996L44.2147 70.6016ZM49.0029 52.6739C49.6984 53.2471 50.5533 53.6466 51.4497 53.7968C51.4446 53.809 51.4407 53.8266 51.4326 53.8367L47.7861 62.3062C46.9662 61.9261 46.1852 61.4351 45.4452 60.8359L48.9704 52.6488C48.9811 52.6572 48.9926 52.6651 49.0029 52.6739ZM53.5565 54.42L53.6227 54.2655L53.8884 53.6483C54.5806 53.4402 55.2159 53.094 55.7581 52.6349L59.2239 60.7365C59.2123 60.7457 59.2012 60.7553 59.1897 60.765C58.4638 61.3638 57.6973 61.8556 56.8937 62.2416L53.5565 54.42ZM52.3653 57.1878L54.8352 62.9772C54.0119 63.1774 53.1574 63.2819 52.273 63.2848C51.4407 63.2819 50.6354 63.19 49.8569 63.0129L52.3653 57.1878ZM50.8913 43.823V40.513C50.8913 39.7607 51.5142 39.1484 52.2794 39.1484C52.6511 39.1484 53.0002 39.2903 53.2612 39.5462C53.524 39.8051 53.6688 40.1484 53.6688 40.513V43.7844C52.7639 43.554 51.7889 43.567 50.8913 43.823ZM26.1875 46.6302C26.1875 44.676 27.5679 43.0282 29.4329 42.557V74.4831C28.2327 74.6816 27.098 75.217 26.1875 76.0092V46.6302ZM77.8125 84.9588H30.5266C28.134 84.9588 26.1875 83.0769 26.1875 80.7635C26.1875 78.4359 28.134 76.5422 30.5266 76.5422C31.1307 76.5422 31.6204 76.0613 31.6204 75.4679V52.974H46.4548L43.7768 59.1944C43.2808 58.6002 43.0308 58.1806 43.0274 58.1747C42.7283 57.6594 42.0605 57.4798 41.5359 57.7735C41.0108 58.0669 40.8279 58.7231 41.127 59.2384C41.1834 59.3358 41.7405 60.2732 42.8309 61.3911L40.5289 66.7382L40.243 66.6195C39.6868 66.3887 39.045 66.6442 38.8096 67.1906C38.5746 67.7369 38.8348 68.3672 39.3911 68.5984L40.1324 68.9064L41.5641 77.1909C41.6457 77.6617 42.0332 78.023 42.516 78.0784C42.5587 78.083 42.601 78.0855 42.6429 78.0855C43.0406 78.0855 43.4064 77.8707 43.5986 77.5278C43.6127 77.5031 43.626 77.4779 43.6384 77.4515C43.6422 77.4439 43.6469 77.4372 43.6499 77.4296L46.2296 71.4379L46.9538 71.7388C47.0931 71.7967 47.2371 71.824 47.3793 71.824C47.8057 71.824 48.2108 71.5777 48.3872 71.1677C48.6226 70.6214 48.362 69.9911 47.8057 69.7599L47.0815 69.459L48.9935 65.0191C49.9667 65.2704 51.0344 65.4232 52.1987 65.4328C52.2094 65.4332 52.2205 65.4332 52.2316 65.4332H52.3145C52.3256 65.4332 52.3362 65.4332 52.3474 65.4328C53.5671 65.4227 54.6801 65.2549 55.6906 64.9817L59.4131 73.7076C59.643 74.2452 60.2933 74.5074 60.8406 74.285L62.1309 73.7597L62.8512 75.6358H54.1619C53.5577 75.6358 53.0681 76.1171 53.0681 76.71C53.0681 77.3033 53.5577 77.7842 54.1619 77.7842H64.4243C64.4269 77.7842 64.4299 77.7846 64.4324 77.7846C64.435 77.7846 64.4376 77.7842 64.4397 77.7842H67.4655C68.0696 77.7842 68.5592 77.3033 68.5592 76.71C68.5592 76.1171 68.0696 75.6358 67.4655 75.6358H65.1891L64.153 72.9377L65.4066 72.4278C65.6753 72.3183 65.8889 72.1081 65.9996 71.8437C66.1102 71.5794 66.1089 71.2827 65.9966 71.0192L61.8288 61.2736C62.8444 60.2082 63.3647 59.332 63.419 59.2384C63.7177 58.724 63.5352 58.0706 63.0123 57.7761C62.4897 57.4815 61.822 57.6594 61.5203 58.1722C61.5161 58.1789 61.3029 58.5368 60.8812 59.058L58.2792 52.974H77.8125V84.9588Z" fill="#B6985A"/>
<path d="M71.6621 77.1216C71.8372 77.5341 72.2687 77.8064 72.725 77.7829C73.1758 77.7594 73.5731 77.4602 73.712 77.0385C73.8521 76.6139 73.7 76.1292 73.3373 75.8581C72.9677 75.582 72.4516 75.5661 72.0645 75.8174C71.6326 76.0981 71.4672 76.6537 71.6621 77.1216Z" fill="#B6985A"/>
</svg>
