<svg width="104" height="122" viewBox="0 0 104 122" fill="none" xmlns="http://www.w3.org/2000/svg">
<path d="M79.9978 50.6024C79.9976 50.43 79.9599 50.2573 79.8798 50.0976L79.3502 49.0424C77.6099 45.5752 75.8697 42.1077 74.1294 38.6393C73.9331 38.2478 73.5273 38 73.0829 38H30.9172C30.4728 38 30.067 38.2478 29.8707 38.6393C27.9538 42.4595 26.037 46.2786 24.1202 50.0975C24.04 50.2572 24.0024 50.4299 24.0022 50.6024L24 50.6046V53.5543C24 55.5535 25.5299 57.207 27.5 57.4482V81.6059C27.5 83.8217 29.3354 85.6243 31.5915 85.6243H72.4085C74.6645 85.6243 76.5 83.8217 76.5 81.6059V57.4482C78.4701 57.2071 80 55.5536 80 53.5543V50.6046L79.9978 50.6024ZM72.3572 40.2917C73.8906 43.3477 75.4243 46.4033 76.9576 49.4584H72.9377L69.488 40.2917H72.3572ZM67.0005 40.2917L70.45 49.4584H66.3309C66.3309 49.4584 64.4416 41.9288 64.0311 40.2917H67.0005ZM70.9583 51.7504V53.5544C70.9583 54.4551 70.2122 55.1879 69.2951 55.1879H68.2466C67.3295 55.1879 66.5834 54.4551 66.5834 53.5544V51.7504H70.9583ZM64.25 51.7504V53.5544C64.25 54.4551 63.504 55.1879 62.5868 55.1879H61.5383C60.6212 55.1879 59.8751 54.4551 59.8751 53.5544V51.7504H64.25ZM61.6278 40.2917C62.0843 42.1118 63.9277 49.4584 63.9277 49.4584H59.7401L58.5903 40.2917H61.6278ZM53.1667 40.2917H56.2393L57.3891 49.4584H53.1667V40.2917ZM53.1667 51.7504H57.5417V53.5544C57.5417 54.4551 56.7957 55.1879 55.8785 55.1879H54.83C53.9129 55.1879 53.1668 54.4551 53.1668 53.5544V51.7504H53.1667ZM47.7608 40.2917H50.8334V49.4584H46.611L47.7608 40.2917ZM46.4583 51.7504H50.8333V53.5544C50.8333 54.4551 50.0872 55.1879 49.1701 55.1879H48.1216C47.2045 55.1879 46.4584 54.4551 46.4584 53.5544V51.7504H46.4583ZM42.3722 40.2917H45.4097L44.2599 49.4584H40.0723C40.0723 49.4584 41.9158 42.1118 42.3722 40.2917ZM44.125 51.7504V53.5544C44.125 54.4551 43.379 55.1879 42.4618 55.1879H41.4133C40.4962 55.1879 39.7501 54.4551 39.7501 53.5544V51.7504H44.125ZM39.969 40.2917C39.5583 41.929 37.6692 49.4584 37.6692 49.4584H33.55L36.9995 40.2917H39.969ZM37.4167 51.7504V53.5544C37.4167 54.4551 36.6707 55.1879 35.7535 55.1879H34.705C33.7879 55.1879 33.0418 54.4551 33.0418 53.5544V51.7504H37.4167ZM31.6428 40.2917H34.512L31.0625 49.4584H27.0426C28.576 46.4032 30.1094 43.3478 31.6428 40.2917ZM27.9966 55.1879C27.0796 55.1879 26.3334 54.4551 26.3334 53.5544V51.7504H30.7084V53.5544C30.7084 54.4551 29.9624 55.1879 29.0452 55.1879H27.9966ZM47.4792 83.3327H35.5792V63.0575C35.5792 62.6502 35.9166 62.3189 36.3314 62.3189H46.727C47.1418 62.3189 47.4792 62.6503 47.4792 63.0575V83.3327ZM74.1667 81.6059C74.1667 82.5579 73.378 83.3327 72.4085 83.3327H49.8125V63.0575C49.8125 61.3866 48.4284 60.0273 46.727 60.0273H36.3314C34.63 60.0273 33.2459 61.3866 33.2459 63.0575V83.3327H31.5915C30.622 83.3327 29.8333 82.5579 29.8333 81.6059V57.4025C30.6221 57.2469 31.3277 56.8627 31.875 56.3233C32.5992 57.0371 33.6003 57.4797 34.7049 57.4797H35.7534C36.858 57.4797 37.8591 57.0372 38.5833 56.3233C39.3075 57.0371 40.3086 57.4797 41.4132 57.4797H42.4617C43.5663 57.4797 44.5674 57.0372 45.2916 56.3233C46.0158 57.0371 47.0169 57.4797 48.1215 57.4797H49.17C50.2746 57.4797 51.2757 57.0372 51.9999 56.3233C52.7241 57.0371 53.7252 57.4797 54.8298 57.4797H55.8783C56.9829 57.4797 57.984 57.0372 58.7082 56.3233C59.4324 57.0371 60.4335 57.4797 61.538 57.4797H62.5866C63.6912 57.4797 64.6923 57.0372 65.4165 56.3233C66.1407 57.0371 67.1418 57.4797 68.2463 57.4797H69.2949C70.3995 57.4797 71.4006 57.0372 72.1248 56.3233C72.6721 56.8627 73.3777 57.2469 74.1665 57.4025V81.6059H74.1667ZM77.6667 53.5543C77.6667 54.455 76.9207 55.1878 76.0035 55.1878H74.955C74.0379 55.1878 73.2918 54.455 73.2918 53.5543V51.7503H77.6668V53.5543H77.6667Z" fill="#B6985A"/>
<path d="M43.9788 69.3882H39.0788C38.4345 69.3882 37.9121 69.9013 37.9121 70.5341C37.9121 71.1668 38.4344 71.6799 39.0788 71.6799H43.9788C44.6231 71.6799 45.1455 71.1668 45.1455 70.5341C45.1455 69.9013 44.6231 69.3882 43.9788 69.3882Z" fill="#B6985A"/>
<path d="M68.2018 60.0271H57.0893C55.0869 60.0271 53.458 61.627 53.458 63.5935V77.4746C53.458 79.441 55.0869 81.041 57.0893 81.041H68.2018C70.2041 81.041 71.833 79.441 71.833 77.4746V63.5935C71.833 61.627 70.2042 60.0271 68.2018 60.0271ZM69.4997 77.4747C69.4997 78.1776 68.9174 78.7494 68.2018 78.7494H57.0893C56.3736 78.7494 55.7913 78.1776 55.7913 77.4747V75.3119H61.5955C62.2398 75.3119 62.7622 74.7988 62.7622 74.1661C62.7622 73.5334 62.2399 73.0202 61.5955 73.0202H55.7913V63.5935C55.7913 62.8905 56.3736 62.3187 57.0893 62.3187H68.2018C68.9174 62.3187 69.4997 62.8905 69.4997 63.5935V77.4747Z" fill="#B6985A"/>
<path d="M65.9563 73.0203H65.8396C65.1952 73.0203 64.6729 73.5334 64.6729 74.1661C64.6729 74.7988 65.1951 75.312 65.8396 75.312H65.9563C66.6006 75.312 67.123 74.7988 67.123 74.1661C67.123 73.5334 66.6006 73.0203 65.9563 73.0203Z" fill="#B6985A"/>
<path fill-rule="evenodd" clip-rule="evenodd" d="M52.0001 3.1547L1.03857 32.5774V91.4226L52.0001 120.845L102.962 91.4226V32.5774L52.0001 3.1547ZM103.962 32L52.0001 2L0.0385742 32V92L52.0001 122L103.962 92V32Z" fill="#B6985A"/>
</svg>
