<svg width="104" height="122" viewBox="0 0 104 122" fill="none" xmlns="http://www.w3.org/2000/svg">
<path fill-rule="evenodd" clip-rule="evenodd" d="M52.0001 3.1547L1.03857 32.5774V91.4226L52.0001 120.845L102.962 91.4226V32.5774L52.0001 3.1547ZM103.962 32L52.0001 2L0.0385742 32V92L52.0001 122L103.962 92V32Z" fill="#B6985A"/>
<path d="M56.25 36.4999C56.9403 36.4999 57.4999 35.9403 57.4999 35.25C57.4999 34.5596 56.9403 34 56.25 34C55.5596 34 55 34.5596 55 35.25C55 35.9403 55.5596 36.4999 56.25 36.4999Z" fill="#B6985A"/>
<path d="M78.75 61.5001H67.625L68.75 45.25H71.5L72.5 57.875C72.6251 58.5 73.125 59.125 73.875 59C74.625 59 75.125 58.375 75 57.625L73.7501 43.875C73.7501 43.25 73.1251 42.75 72.5001 42.75H67.5002C66.8752 42.75 66.2502 43.25 66.2502 43.875L65.125 61.5001H64.125L51.875 54.125C51.5 53.875 51.0001 53.875 50.6251 54.125C50.25 54.375 50.0001 54.75 50.0001 55.25V60.5001L39.3751 54.1251C39.0001 53.8751 38.5001 53.8751 38.1251 54.1251C37.7501 54.3751 37.5001 54.7501 37.5001 55.2501V60.5002L26.8752 54.1252C26.5001 53.8753 26.0002 53.8753 25.6252 54.1252C25.2502 54.3752 25 54.7501 25 55.25V87.75C25 88.5 25.5 89 26.25 89H53.75C54.5 89 54.9999 88.5 54.9999 87.7501C54.9999 87.0002 54.4999 86.5001 53.75 86.5001H27.5V57.5001L38.125 63.875C38.5 64.125 39 64.125 39.375 63.875C39.75 63.6251 40 63.2501 40 62.75V57.5L50.625 63.8749C51 64.1249 51.4999 64.1249 51.8749 63.8749C52.2499 63.625 52.4999 63.25 52.4999 62.7499V57.4999L63.1249 63.8748C63.2499 63.9999 63.4999 63.9999 63.7499 63.9999H77.4999V86.4999H74.9998V72.7499C74.9998 71.9999 74.4998 71.5 73.7499 71.5H58.75C58 71.5 57.5001 72 57.5001 72.7499V87.7499C57.5001 88.4999 58.0001 88.9998 58.75 88.9998H73.75H78.7499C79.5 88.9998 79.9999 88.4998 79.9999 87.7499V62.75C80 62.0001 79.5 61.5001 78.75 61.5001ZM65 86.5H60.0001V74.0001H65V86.5ZM72.5 86.5H67.5001V74.0001H72.5V86.5Z" fill="#B6985A"/>
<path d="M53.7499 71.5H31.25C30.4999 71.5 30 72 30 72.75V80.2499C30 81 30.5 81.4999 31.25 81.4999H53.75C54.5 81.4999 55 80.9999 55 80.2499V72.75C55 71.9999 54.4999 71.5 53.7499 71.5ZM52.4999 79H32.4999V74H52.4999V79Z" fill="#B6985A"/>
<path d="M73.7499 34H61.25C60.4999 34 60 34.5 60 35.25C60 35.9999 60.5 36.4999 61.25 36.4999H73.75C74.5 36.4999 75 37 75 37.7499C75 38.4999 74.4999 38.9998 73.75 38.9998H68.75C68 38.9998 67.5001 39.4999 67.5001 40.2498C67.5001 40.9997 68.0001 41.4998 68.75 41.4998H73.75C75.875 41.4998 77.5 39.8748 77.5 37.7498C77.4999 35.625 75.8749 34 73.7499 34Z" fill="#B6985A"/>
</svg>
