<svg width="120" height="122" viewBox="0 0 120 122" fill="none" xmlns="http://www.w3.org/2000/svg">
<path d="M8.53848 32.2887L60 2.57735L111.462 32.2887V91.7113L60 121.423L8.53848 91.7113V32.2887Z" stroke="#B6985A"/>
<circle cx="32" cy="18" r="18" fill="white"/>
<path d="M74.5212 53.6214C74.0755 53.1757 73.3509 53.1757 72.9052 53.6214L57.7143 68.8122L49.3783 60.4785C48.9326 60.0328 48.208 60.0328 47.7623 60.4785C47.3165 60.9243 47.3165 61.6489 47.7623 62.0946L56.9051 71.2374C57.1291 71.4591 57.4216 71.5711 57.7142 71.5711C58.0068 71.5711 58.2993 71.4592 58.5211 71.2374L74.5211 55.2374C74.9669 54.7916 74.9669 54.0671 74.5212 53.6214Z" fill="#B6985A"/>
<path d="M83.184 41.9051L60.3269 35.048C60.1121 34.984 59.8858 34.984 59.6709 35.048L36.8138 41.9051C36.3314 42.0491 36 42.4948 36 43V68.1429C36 78.2503 51.4103 87.24 59.6618 89.8069C59.7715 89.8412 59.8858 89.8571 60 89.8571C60.1142 89.8571 60.2285 89.8412 60.3383 89.8069C68.5898 87.2377 84 78.2502 84 68.1428V43C84 42.4948 83.6686 42.0514 83.184 41.9051ZM81.7143 68.1428C81.7143 76.1679 68.9989 84.6068 60 87.5165C51.0012 84.6068 38.2857 76.1679 38.2857 68.1428V43.8503L60 37.336L81.7143 43.8503V68.1428Z" fill="#B6985A"/>
</svg>
