<svg width="120" height="122" viewBox="0 0 120 122" fill="none" xmlns="http://www.w3.org/2000/svg">
<path d="M79.226 35.4121C73.6321 31.3665 66.9046 29.1887 60.0011 29.1887C53.0977 29.1887 46.3702 31.3665 40.7763 35.4121C36.5702 38.4536 33.1457 42.4496 30.784 47.0718C28.4223 51.694 27.1909 56.8105 27.1909 62.0011C27.1909 67.1917 28.4223 72.3082 30.784 76.9305C33.1457 81.5527 36.5702 85.5486 40.7763 88.5902C46.3702 92.6357 53.0977 94.8135 60.0011 94.8135C66.9046 94.8135 73.6321 92.6357 79.226 88.5902C83.4321 85.5486 86.8566 81.5527 89.2183 76.9305C91.58 72.3082 92.8114 67.1917 92.8114 62.0011C92.8114 56.8105 91.58 51.694 89.2183 47.0718C86.8566 42.4496 83.4321 38.4536 79.226 35.4121ZM90.5922 60.9063H80.7638C80.5844 52.3028 78.3029 44.5263 74.6979 38.8267C75.7518 38.2948 76.776 37.7058 77.7658 37.0625C77.8238 37.1041 77.8851 37.138 77.9419 37.1806C81.7129 39.9159 84.8117 43.4737 87.0035 47.5844C89.1953 51.6951 90.4226 56.2508 90.5922 60.9063ZM78.5774 63.0938C78.398 71.427 76.1897 78.9192 72.7411 84.2742C68.71 82.5669 64.3768 81.6871 59.999 81.6871C55.6211 81.6871 51.2879 82.5669 47.2568 84.2742C43.8126 78.9192 41.6021 71.427 41.4227 63.0938H43.5938V60.9063H41.4227C41.6021 52.573 43.8104 45.0808 47.259 39.7258C51.2898 41.4329 55.6226 42.3126 60.0001 42.3125C64.3775 42.3126 68.7103 41.4329 72.7411 39.7258C76.1876 45.0808 78.398 52.573 78.5774 60.9063H76.4063V63.0938H78.5774ZM58.9063 92.5681C55.0115 92.1941 51.4371 89.8338 48.5463 86.0975C51.8458 84.771 55.3521 84.0325 58.9063 83.9155V92.5681ZM61.0938 83.9155C64.648 84.0325 68.1543 84.771 71.4538 86.0975C68.563 89.8338 64.9886 92.1941 61.0938 92.5681V83.9155ZM61.0938 31.4319C64.9886 31.806 68.563 34.1663 71.4538 37.9025C68.1543 39.229 64.648 39.9675 61.0938 40.0845V31.4319ZM58.9063 40.0845C55.3521 39.9675 51.8458 39.229 48.5463 37.9025C51.4371 34.1663 55.0115 31.806 58.9063 31.4319V40.0845ZM75.7599 35.75C75.0041 36.205 74.2363 36.6338 73.4488 37.0199C72.3341 35.4986 71.04 34.1175 69.5944 32.9063C71.7497 33.62 73.8179 34.5739 75.7599 35.75ZM46.5469 37.0144C45.7638 36.625 44.996 36.1996 44.2402 35.75C46.1822 34.5739 48.2504 33.62 50.4057 32.9063C48.9589 34.1155 47.6633 35.4948 46.5469 37.0144ZM42.0626 37.1817C42.1183 37.1402 42.1796 37.1063 42.2365 37.0658C43.2263 37.7082 44.2505 38.2961 45.3044 38.8267C41.6972 44.5263 39.4157 52.3028 39.2363 60.9063H29.4079C29.5785 56.2507 30.8066 51.695 32.9991 47.5846C35.1916 43.4741 38.2911 39.9166 42.0626 37.1817ZM29.4079 63.0938H39.2363C39.4157 71.6972 41.6972 79.4738 45.3022 85.1733C44.2484 85.7042 43.2242 86.292 42.2343 86.9342C42.1763 86.8927 42.1151 86.8588 42.0582 86.8161C38.2876 84.0812 35.1891 80.5239 32.9973 76.4138C30.8055 72.3037 29.578 67.7486 29.4079 63.0938ZM44.2402 88.2555C44.996 87.8005 45.7638 87.3717 46.5513 86.9856C47.6668 88.5042 48.9605 89.8834 50.4046 91.0938C48.25 90.3815 46.1822 89.4294 44.2402 88.2555ZM73.4532 86.9856C74.2407 87.3717 75.0085 87.8005 75.7643 88.2555C73.8209 89.4297 71.7516 90.3818 69.5955 91.0938C71.0417 89.8842 72.3369 88.5049 73.4532 86.9856ZM77.9441 86.8183C77.8883 86.8599 77.8271 86.8938 77.7702 86.9342C76.782 86.2922 75.7597 85.7044 74.7077 85.1733C78.3171 79.4738 80.5943 71.6972 80.7736 63.0938H90.5922C90.4217 67.7493 89.1936 72.305 87.001 76.4155C84.8085 80.526 81.709 84.0834 77.9376 86.8183H77.9441Z" fill="#B6985A"/>
<path d="M60.0001 44.5C56.2304 44.5043 52.6163 46.0038 49.9507 48.6694C47.2852 51.335 45.7857 54.949 45.7814 58.7188C45.7814 68.9913 58.7904 78.8656 59.3439 79.2812C59.5332 79.4232 59.7635 79.5 60.0001 79.5C60.2368 79.5 60.467 79.4232 60.6564 79.2812C61.2098 78.8656 74.2189 68.9913 74.2189 58.7188C74.2145 54.949 72.7151 51.335 70.0495 48.6694C67.3839 46.0038 63.7698 44.5043 60.0001 44.5ZM60.0001 77.0117C57.3981 74.8975 47.9689 66.6823 47.9689 58.7188C47.9689 55.5279 49.2364 52.4677 51.4927 50.2114C53.749 47.9551 56.8092 46.6875 60.0001 46.6875C63.191 46.6875 66.2512 47.9551 68.5075 50.2114C70.7638 52.4677 72.0314 55.5279 72.0314 58.7188C72.0314 66.6714 62.6 74.8964 60.0001 77.0117Z" fill="#605A53"/>
<path d="M60.0001 52.1562C58.7021 52.1562 57.4333 52.5411 56.3541 53.2622C55.2749 53.9833 54.4338 55.0082 53.9371 56.2074C53.4404 57.4065 53.3104 58.726 53.5637 59.999C53.8169 61.272 54.4419 62.4413 55.3597 63.3591C56.2775 64.2769 57.4468 64.9019 58.7198 65.1551C59.9928 65.4084 61.3123 65.2784 62.5114 64.7817C63.7106 64.285 64.7355 63.4439 65.4566 62.3647C66.1777 61.2855 66.5626 60.0167 66.5626 58.7187C66.5608 56.9788 65.8689 55.3106 64.6385 54.0803C63.4082 52.8499 61.74 52.158 60.0001 52.1562ZM60.0001 63.0937C59.1348 63.0937 58.2889 62.8372 57.5694 62.3564C56.85 61.8757 56.2892 61.1924 55.9581 60.393C55.627 59.5936 55.5403 58.7139 55.7091 57.8652C55.8779 57.0166 56.2946 56.237 56.9065 55.6252C57.5183 55.0133 58.2979 54.5966 59.1465 54.4278C59.9952 54.259 60.8749 54.3456 61.6743 54.6768C62.4737 55.0079 63.157 55.5687 63.6377 56.2881C64.1185 57.0076 64.3751 57.8535 64.3751 58.7187C64.3751 59.8791 63.9141 60.9919 63.0936 61.8123C62.2732 62.6328 61.1604 63.0937 60.0001 63.0937Z" fill="#605A53"/>
<path d="M8.53848 32.2887L60 2.57735L111.462 32.2887V91.7113L60 121.423L8.53848 91.7113V32.2887Z" stroke="#B6985A"/>
<circle cx="32" cy="18" r="18" fill="#3A383C"/>
</svg>
