<svg width="120" height="122" viewBox="0 0 120 122" fill="none" xmlns="http://www.w3.org/2000/svg">
<path d="M8.53848 32.2887L60 2.57735L111.462 32.2887V91.7113L60 121.423L8.53848 91.7113V32.2887Z" stroke="#B6985A"/>
<path d="M78 46C76.724 46 75.531 46.349 74.5 46.947C73.469 46.349 72.276 46 71 46C67.141 46 64 49.14 64 53C64 56.86 67.141 60 71 60C72.276 60 73.469 59.651 74.5 59.053C75.531 59.651 76.724 60 78 60C81.859 60 85 56.86 85 53C85 49.14 81.859 46 78 46ZM76 53C76 54.394 75.424 55.654 74.5 56.562C73.576 55.654 73 54.394 73 53C73 51.606 73.576 50.346 74.5 49.438C75.424 50.346 76 51.606 76 53ZM66 53C66 50.243 68.243 48 71 48C71.631 48 72.23 48.13 72.787 48.345C71.68 49.583 71 51.212 71 53C71 54.788 71.68 56.417 72.787 57.655C72.23 57.87 71.631 58 71 58C68.243 58 66 55.757 66 53ZM78 58C77.369 58 76.77 57.87 76.213 57.655C77.32 56.417 78 54.788 78 53C78 51.212 77.32 49.583 76.213 48.345C76.77 48.13 77.369 48 78 48C80.757 48 83 50.243 83 53C83 55.757 80.757 58 78 58Z" fill="#B6985A"/>
<path d="M85.783 40H34.217C31.892 40 30 41.892 30 44.217V79.783C30 82.108 31.892 84 34.217 84H85.783C88.108 84 90 82.108 90 79.783V44.217C90 41.892 88.108 40 85.783 40ZM88 79.783C88 81.005 87.006 82 85.783 82H34.217C32.994 82 32 81.005 32 79.783V44.217C32 42.995 32.994 42 34.217 42H85.783C87.006 42 88 42.995 88 44.217V79.783Z" fill="#B6985A"/>
<path d="M36 50H45C45.553 50 46 49.552 46 49C46 48.448 45.553 48 45 48H36C35.447 48 35 48.448 35 49C35 49.552 35.447 50 36 50Z" fill="#B6985A"/>
<path d="M58 48H49C48.447 48 48 48.448 48 49C48 49.552 48.447 50 49 50H58C58.553 50 59 49.552 59 49C59 48.448 58.553 48 58 48Z" fill="#B6985A"/>
<path d="M36 55H37C37.553 55 38 54.552 38 54C38 53.448 37.553 53 37 53H36C35.447 53 35 53.448 35 54C35 54.552 35.447 55 36 55Z" fill="#B6985A"/>
<path d="M41 53C40.447 53 40 53.448 40 54C40 54.552 40.447 55 41 55H43C43.553 55 44 54.552 44 54C44 53.448 43.553 53 43 53H41Z" fill="#B6985A"/>
<path d="M49 54C49 53.448 48.553 53 48 53H47C46.447 53 46 53.448 46 54C46 54.552 46.447 55 47 55H48C48.553 55 49 54.552 49 54Z" fill="#B6985A"/>
<path d="M54 55C54.553 55 55 54.552 55 54C55 53.448 54.553 53 54 53H52C51.447 53 51 53.448 51 54C51 54.552 51.447 55 52 55H54Z" fill="#B6985A"/>
<path d="M57.3 53.2899C57.109 53.4799 57 53.7299 57 53.9999C57 54.2699 57.109 54.5199 57.29 54.7099C57.479 54.8899 57.74 54.9999 58 54.9999C58.26 54.9999 58.52 54.8899 58.71 54.7099C58.89 54.5199 59 54.2599 59 53.9999C59 53.7399 58.89 53.4799 58.71 53.2999C58.34 52.9199 57.66 52.9199 57.3 53.2899Z" fill="#B6985A"/>
<path d="M35 77H46V69H35V77ZM37 71H44V75H37V71Z" fill="#D1C8B7"/>
<path d="M48 77H59V69H48V77ZM50 71H57V75H50V71Z" fill="#D1C8B7"/>
<path d="M61 77H72V69H61V77ZM63 71H70V75H63V71Z" fill="#D1C8B7"/>
<path d="M74 77H85V69H74V77ZM76 71H83V75H76V71Z" fill="#D1C8B7"/>
</svg>
