<svg width="120" height="122" viewBox="0 0 120 122" fill="none" xmlns="http://www.w3.org/2000/svg">
<path d="M67.0455 37.1152C66.4626 33.6551 63.3244 31.2196 59.8275 31.5129C56.3311 31.8063 53.6428 34.7313 53.645 38.2404V68.6202C53.645 69.2416 54.1488 69.7454 54.7702 69.7454H55.8954V88.8735C55.8954 89.4948 56.3992 89.9986 57.0206 89.9986H59.2709V97.8749C59.2709 98.4963 59.7747 99.0001 60.3961 99.0001C61.0175 99.0001 61.5213 98.4963 61.5213 97.8749V89.9986H63.7716C64.393 89.9986 64.8968 89.4948 64.8968 88.8735V69.7454H66.022C66.6434 69.7454 67.1472 69.2416 67.1472 68.6202C67.1472 68.6202 67.1472 40.5611 67.1472 39.3656C67.1472 38.1701 67.0455 37.1152 67.0455 37.1152ZM62.6465 74.2461H60.3961V76.4965H62.6465V78.7469H60.3961V80.9972H62.6465V87.7483H58.1457V78.7469H60.3961V76.4965H58.1457V74.2461H60.3961V71.9958H58.1457V69.7454H62.6465V74.2461ZM64.8968 67.4951H55.8954V62.9943H64.8968V67.4951ZM64.8968 60.744H55.8954V38.2404C55.8904 35.9757 57.5727 34.0616 59.8198 33.7754C62.0663 33.4897 64.1743 34.9214 64.7369 37.1152L64.8968 39.3656V60.744Z" fill="#B6985A"/>
<path d="M78.3994 88.8734H80.6498V91.1238H78.3994V88.8734Z" fill="#D1C8B7"/>
<path d="M78.3994 93.3741H80.6498V95.6245H78.3994V93.3741Z" fill="#D1C8B7"/>
<path d="M76.1487 91.1238H78.399V93.3741H76.1487V91.1238Z" fill="#D1C8B7"/>
<path d="M80.6497 91.1238H82.9V93.3741H80.6497V91.1238Z" fill="#D1C8B7"/>
<path d="M69.3977 83.2476H71.6481V85.4979H69.3977V83.2476Z" fill="#D1C8B7"/>
<path d="M69.3977 87.7482H71.6481V89.9985H69.3977V87.7482Z" fill="#D1C8B7"/>
<path d="M67.1475 85.4979H69.3978V87.7483H67.1475V85.4979Z" fill="#D1C8B7"/>
<path d="M71.6482 85.4979H73.8985V87.7483H71.6482V85.4979Z" fill="#D1C8B7"/>
<path d="M42.5007 88.8734H40.2504V91.1238H42.5007V88.8734Z" fill="#D1C8B7"/>
<path d="M42.5007 93.3741H40.2504V95.6245H42.5007V93.3741Z" fill="#D1C8B7"/>
<path d="M44.7512 91.1238H42.5009V93.3741H44.7512V91.1238Z" fill="#D1C8B7"/>
<path d="M40.2502 91.1238H37.9999V93.3741H40.2502V91.1238Z" fill="#D1C8B7"/>
<path d="M51.5022 83.2476H49.2518V85.4979H51.5022V83.2476Z" fill="#D1C8B7"/>
<path d="M51.5022 87.7482H49.2518V89.9985H51.5022V87.7482Z" fill="#D1C8B7"/>
<path d="M53.7527 85.4979H51.5023V87.7483H53.7527V85.4979Z" fill="#D1C8B7"/>
<path d="M49.2517 85.4979H47.0014V87.7483H49.2517V85.4979Z" fill="#D1C8B7"/>
<path d="M8.53848 32.2887L60 2.57735L111.462 32.2887V91.7113L60 121.423L8.53848 91.7113V32.2887Z" stroke="#B6985A"/>
</svg>
