<svg width="120" height="122" viewBox="0 0 120 122" fill="none" xmlns="http://www.w3.org/2000/svg">
<path d="M91.9266 62.3989C91.2404 61.5811 90.3044 61.0496 89.2314 60.851L88.7274 54.0104C89.2246 54.0057 89.6486 53.6476 89.7352 53.1568L89.9296 52.0546C90.1379 50.873 89.8473 49.7067 89.1323 48.8547C88.4182 48.0037 87.3726 47.5348 86.1881 47.5348H78.6014L78.9707 45.4408C79.0755 44.846 78.9237 44.2521 78.5542 43.8118C78.1884 43.3758 77.6384 43.1257 77.0451 43.1257H39.7004C38.596 43.1257 37.5795 43.9849 37.386 45.082L34.082 63.8207C33.983 64.3828 34.3582 64.9187 34.9203 65.0177C34.9808 65.0284 35.0412 65.0336 35.1009 65.0336C35.5929 65.0336 36.029 64.6808 36.1173 64.1795L39.4214 45.4408C39.4432 45.3174 39.602 45.1924 39.7002 45.1924L76.9157 45.1925L73.6311 63.8207C73.5319 64.3828 73.9072 64.9187 74.4693 65.0177C75.0307 65.1166 75.5674 64.7415 75.6664 64.1795L75.9046 62.8287H88.2623C88.2627 62.8287 88.2632 62.8287 88.2637 62.8287C88.2642 62.8287 88.2648 62.8287 88.2651 62.8287C89.1193 62.8288 89.8573 63.1478 90.3434 63.727C90.6779 64.1257 90.873 64.622 90.92 65.171H87.4873C86.9857 65.171 86.5568 65.5311 86.4696 66.025L86.081 68.2296C85.9243 69.1177 86.1455 69.9978 86.6877 70.644C87.2224 71.2814 88.0341 71.6469 88.9144 71.6469H89.8874L89.0856 76.1938H86.3573C86.1778 75.2844 85.7847 74.4479 85.1891 73.7383C84.1322 72.4785 82.5768 71.7848 80.8098 71.7848C77.9766 71.7848 75.2432 73.6385 73.9635 76.1939H73.548L74.8891 68.5886C74.9881 68.0266 74.6129 67.4906 74.0508 67.3916C73.489 67.2923 72.9528 67.6677 72.8538 68.2298L71.4495 76.1941H52.3195C52.1399 75.2846 51.7469 74.4483 51.1512 73.7385C50.0942 72.4787 48.5389 71.7851 46.7719 71.7851C43.9387 71.7851 41.2052 73.6387 39.9256 76.1942L33.9987 76.1941L34.4117 73.8518H39.0561C39.6268 73.8518 40.0895 73.3892 40.0895 72.8184C40.0895 72.2477 39.6269 71.7849 39.0561 71.7849H28.0334C27.4628 71.7849 27 72.2476 27 72.8184C27 73.3891 27.4626 73.8518 28.0334 73.8518H32.3133L31.9439 75.9459C31.8391 76.5407 31.991 77.1346 32.3604 77.5749C32.7263 78.0109 33.2763 78.2609 33.8695 78.2609H39.2545C38.9744 80.0139 39.3954 81.6653 40.4492 82.921C41.5062 84.1808 43.0615 84.8745 44.8285 84.8745C48.3456 84.8745 51.7104 82.0191 52.3293 78.5091C52.3439 78.4259 52.3553 78.3433 52.3669 78.2608H73.2924C73.0122 80.0137 73.4332 81.6651 74.4871 82.9209C75.5442 84.1807 77.0994 84.8743 78.8665 84.8743C82.3835 84.8743 85.7484 82.0189 86.3673 78.5089C86.3818 78.4258 86.3933 78.3432 86.4049 78.2607H89.953C90.4546 78.2607 90.8836 77.9006 90.9708 77.4067L92.9144 66.3839C93.1781 64.8877 92.8274 63.4724 91.9266 62.3989ZM76.2693 60.7623L77.4597 54.0108H86.6554L87.1528 60.7623H76.2693ZM87.8941 51.6958L87.8503 51.9441H77.824L78.237 49.6017H86.1881C86.751 49.6017 87.2344 49.8082 87.5489 50.1832C87.8751 50.5717 87.9978 51.1088 87.8941 51.6958ZM50.294 78.1505C49.8413 80.7187 47.3894 82.8078 44.8285 82.8078C43.683 82.8078 42.69 82.3763 42.0324 81.5928C41.3559 80.7865 41.0981 79.6915 41.3065 78.5095C41.7594 75.9413 44.2112 73.8521 46.772 73.8521C47.9175 73.8521 48.9106 74.2837 49.5681 75.0673C50.2446 75.8733 50.5024 76.9684 50.294 78.1505ZM84.3318 78.1505C83.879 80.7187 81.4272 82.8078 78.8663 82.8078C77.7209 82.8078 76.7278 82.3763 76.0702 81.5926C75.3937 80.7863 75.1359 79.6914 75.3444 78.5093C75.7971 75.9411 78.249 73.852 80.8098 73.852C81.9552 73.852 82.9484 74.2835 83.606 75.0672C84.2825 75.8733 84.5403 76.9684 84.3318 78.1505ZM90.2518 69.5806H88.9144V69.5805C88.6387 69.5805 88.4162 69.489 88.2709 69.316C88.1203 69.1363 88.0652 68.8781 88.1163 68.589L88.3545 67.2384H90.6649L90.2518 69.5806Z" fill="#B6985A"/>
<path d="M47.5038 76.8801C47.1379 76.4442 46.5879 76.1941 45.9945 76.1941C44.8902 76.1941 43.8736 77.0533 43.6801 78.1504C43.5753 78.7452 43.7272 79.339 44.0966 79.7794C44.4625 80.2153 45.0125 80.4654 45.6057 80.4654C46.7101 80.4654 47.7266 79.6061 47.9201 78.5093C48.0251 77.9143 47.8733 77.3206 47.5038 76.8801Z" fill="#605A53"/>
<path d="M81.5416 76.8801C81.1757 76.4442 80.6256 76.1941 80.0325 76.1941C78.9282 76.1941 77.9116 77.0533 77.7183 78.1502C77.6135 78.7452 77.765 79.3389 78.1346 79.7794C78.5005 80.2153 79.0505 80.4654 79.6437 80.4654C80.7481 80.4654 81.7646 79.6061 81.9581 78.5093C82.0631 77.9143 81.9112 77.3206 81.5416 76.8801Z" fill="#605A53"/>
<path d="M68.685 71.785H55.5903C55.0197 71.785 54.5569 72.2477 54.5569 72.8185C54.5569 73.3891 55.0195 73.8519 55.5903 73.8519H68.685C69.2557 73.8519 69.7184 73.3893 69.7184 72.8185C69.7183 72.2477 69.2557 71.785 68.685 71.785Z" fill="#605A53"/>
<path d="M50.0788 67.376H31.0154C30.4447 67.376 29.9819 67.8386 29.9819 68.4094C29.9819 68.9801 30.4444 69.4429 31.0154 69.4429H50.0788C50.6495 69.4429 51.1122 68.9802 51.1122 68.4094C51.1122 67.8386 50.6496 67.376 50.0788 67.376Z" fill="#605A53"/>
<path d="M69.8133 63.2183L65.9874 59.9114C65.5556 59.5384 64.903 59.5857 64.5297 60.0175C64.1564 60.4494 64.204 61.1019 64.6358 61.4752L66.3616 62.9669H40.1584C39.5878 62.9669 39.125 63.4295 39.125 64.0003C39.125 64.571 39.5876 65.0338 40.1584 65.0338H65.7063L63.5748 66.4458C63.0989 66.7609 62.9688 67.4022 63.284 67.878C63.4827 68.1782 63.8115 68.3408 64.1464 68.3408C64.3423 68.3408 64.5406 68.2851 64.7161 68.1687L69.7083 64.8618C69.978 64.6834 70.1482 64.389 70.1689 64.0662C70.1895 63.7433 70.058 63.4296 69.8133 63.2183Z" fill="#605A53"/>
<path d="M8.53848 32.2887L60 2.57735L111.462 32.2887V91.7113L60 121.423L8.53848 91.7113V32.2887Z" stroke="#B6985A"/>
<circle cx="32" cy="18" r="18" fill="#3A383C"/>
</svg>
